<?xml version="1.0" encoding="iso-8859-1"?>
<!-- Generator: Adobe Illustrator 19.0.0, SVG Export Plug-In . SVG Version: 6.00 Build 0)  -->
<svg version="1.1" id="Capa_1" xmlns="http://www.w3.org/2000/svg" xmlns:xlink="http://www.w3.org/1999/xlink" x="0px" y="0px"
	 viewBox="0 0 511.813 511.813" style="enable-background:new 0 0 511.813 511.813;fill:#FB8B24;" xml:space="preserve">
<g>
	<g>
		<path d="M451.748,36.768h-0.086c-2.203,0-3.953,1.789-3.953,3.999c0,2.211,1.828,4,4.039,4c2.203,0,3.999-1.789,3.999-4
			C455.747,38.557,453.951,36.768,451.748,36.768z"/>
	</g>
</g>
<g>
	<g>
		<path d="M451.748,59.388h-0.086c-2.203,0-3.953,1.789-3.953,4c0,2.21,1.828,3.999,4.039,3.999c2.203,0,3.999-1.789,3.999-3.999
			C455.747,61.177,453.951,59.388,451.748,59.388z"/>
	</g>
</g>
<g>
	<g>
		<path d="M451.748,82.009h-0.086c-2.203,0-3.953,1.789-3.953,4s1.828,4,4.039,4c2.203,0,3.999-1.789,3.999-4
			S453.951,82.009,451.748,82.009z"/>
	</g>
</g>
<g>
	<g>
		<path d="M505.372,55.047c-1.484-1.632-4.023-1.741-5.656-0.281L440.335,108.5c-1.633,1.484-1.758,4.014-0.281,5.655
			c0.789,0.867,1.882,1.312,2.968,1.312c0.961,0,1.922-0.344,2.687-1.031l59.382-53.734
			C506.724,59.217,506.849,56.688,505.372,55.047z"/>
	</g>
</g>
<g>
	<g>
		<path d="M459.847,9.521c-1.624-1.461-4.171-1.352-5.654,0.281l-53.742,59.382c-1.477,1.64-1.352,4.171,0.281,5.655
			c0.766,0.687,1.727,1.031,2.687,1.031c1.086,0,2.179-0.445,2.968-1.312l53.741-59.382C461.605,13.536,461.48,11.005,459.847,9.521
			z"/>
	</g>
</g>
<g>
	<g>
		<path d="M471.3,9.662c-4.53-4.546-12.436-4.546-16.966,0c-1.562,1.57-1.562,4.101,0,5.655c1.561,1.562,4.092,1.562,5.654,0
			c1.515-1.515,4.14-1.515,5.656,0c0.781,0.781,1.805,1.172,2.827,1.172c1.024,0,2.047-0.391,2.829-1.172
			C472.862,13.763,472.862,11.232,471.3,9.662z"/>
	</g>
</g>
<g>
	<g>
		<path d="M505.232,43.596c-1.562-1.562-4.094-1.562-5.656,0c-1.562,1.562-1.562,4.093,0,5.655s1.562,4.093,0,5.655
			c-1.562,1.562-1.562,4.093,0,5.655c0.781,0.781,1.805,1.172,2.828,1.172c1.024,0,2.047-0.391,2.828-1.171
			C509.911,55.883,509.911,48.274,505.232,43.596z"/>
	</g>
</g>
<g>
	<g>
		<path d="M505.232,43.594L471.299,9.661c-1.562-1.562-4.093-1.562-5.655,0s-1.562,4.093,0,5.655l33.932,33.933
			c0.781,0.781,1.805,1.172,2.828,1.172c1.024,0,2.047-0.39,2.828-1.172C506.794,47.688,506.794,45.156,505.232,43.594z"/>
	</g>
</g>
<g>
	<g>
		<path d="M395.044,103.094c-1.491-1.633-4.022-1.727-5.646-0.227L241.912,239.042c-1.625,1.5-1.727,4.03-0.227,5.647
			c0.789,0.859,1.859,1.289,2.937,1.289c0.977,0,1.945-0.352,2.719-1.063L394.817,108.74
			C396.442,107.24,396.544,104.711,395.044,103.094z"/>
	</g>
</g>
<g>
	<g>
		<path d="M411.792,119.849c-1.601-1.499-4.14-1.414-5.647,0.211L258.667,278.857c-1.5,1.617-1.406,4.147,0.211,5.647
			c0.765,0.718,1.741,1.07,2.718,1.07c1.079,0,2.149-0.43,2.929-1.281l147.478-158.797
			C413.511,123.88,413.417,121.349,411.792,119.849z"/>
	</g>
</g>
<g>
	<g>
		<path d="M406.247,69.044c-1.562-1.562-4.093-1.562-5.655,0c-1.562,1.57-1.562,4.101,0,5.655c2.272,2.273,3.522,5.28,3.522,8.483
			c0,3.202-1.25,6.21-3.522,8.483c-1.562,1.554-1.562,4.086,0,5.656c0.781,0.78,1.805,1.171,2.827,1.171
			c1.023,0,2.047-0.391,2.828-1.17c3.78-3.774,5.866-8.796,5.866-14.139C412.113,77.841,410.027,72.818,406.247,69.044z"/>
	</g>
</g>
<g>
	<g>
		<path d="M445.851,108.648c-7.577-7.562-20.747-7.562-28.293,0c-1.562,1.562-1.562,4.093,0,5.655s4.093,1.562,5.655,0
			c4.539-4.546,12.443-4.546,16.982,0c0.781,0.781,1.804,1.172,2.827,1.172c1.024,0,2.047-0.391,2.829-1.172
			C447.413,112.74,447.413,110.209,445.851,108.648z"/>
	</g>
</g>
<g>
	<g>
		<path d="M417.557,114.294L400.591,97.32c-1.562-1.562-4.094-1.562-5.656,0s-1.562,4.093,0,5.655l16.967,16.974
			c0.781,0.781,1.805,1.172,2.828,1.172s2.046-0.39,2.827-1.172C419.119,118.388,419.119,115.857,417.557,114.294z"/>
	</g>
</g>
<g>
	<g>
		<path d="M406.246,91.665c-1.562-1.562-4.093-1.562-5.655,0l-5.656,5.656c-1.562,1.562-1.562,4.093,0,5.655
			c0.781,0.781,1.805,1.172,2.828,1.172c1.024,0,2.047-0.391,2.828-1.172l5.655-5.655C407.808,95.758,407.808,93.227,406.246,91.665
			z"/>
	</g>
</g>
<g>
	<g>
		<path d="M423.385,108.469c-1.562-1.562-4.093-1.562-5.655,0l-5.64,5.647c-1.562,1.562-1.562,4.093,0,5.655
			c0.781,0.781,1.805,1.172,2.828,1.172c1.022,0,2.046-0.391,2.827-1.172l5.64-5.647
			C424.947,112.562,424.947,110.031,423.385,108.469z"/>
	</g>
</g>
<g>
	<g>
		<path d="M454.615,15.597l-8.765-8.764c-1.562-1.562-4.093-1.562-5.655,0s-1.562,4.094,0,5.656l8.764,8.764
			c0.781,0.781,1.805,1.172,2.828,1.172s2.047-0.391,2.828-1.173C456.177,19.69,456.177,17.159,454.615,15.597z"/>
	</g>
</g>
<g>
	<g>
		<path d="M451.506,1.172c-1.562-1.562-4.093-1.562-5.655,0L434.539,12.49c-1.562,1.562-1.562,4.093,0,5.655
			c0.781,0.781,1.805,1.172,2.828,1.172s2.047-0.391,2.828-1.172l11.311-11.319C453.068,5.264,453.068,2.734,451.506,1.172z"/>
	</g>
</g>
<g>
	<g>
		<path d="M433.118,39.354l-9.89-9.897c-1.562-1.562-4.093-1.562-5.655,0s-1.562,4.093,0,5.655l9.89,9.897
			c0.781,0.78,1.804,1.171,2.827,1.171s2.047-0.39,2.828-1.17C434.68,43.446,434.68,40.915,433.118,39.354z"/>
	</g>
</g>
<g>
	<g>
		<path d="M428.884,23.8c-1.561-1.562-4.093-1.562-5.655,0l-11.311,11.311c-1.562,1.562-1.562,4.093,0,5.655
			c0.781,0.781,1.805,1.172,2.828,1.172c1.022,0,2.046-0.391,2.827-1.172l11.311-11.311C430.446,27.893,430.446,25.362,428.884,23.8
			z"/>
	</g>
</g>
<g>
	<g>
		<path d="M250.286,221.014c-1.023,0-104.132,0.586-244.565,51.141c-2.078,0.75-3.156,3.038-2.406,5.116
			c0.586,1.632,2.116,2.648,3.757,2.648c0.453,0,0.906-0.078,1.36-0.233c139.018-50.056,240.846-50.673,241.854-50.673
			c2.21,0,3.999-1.789,3.999-4C254.285,222.803,252.496,221.014,250.286,221.014z"/>
	</g>
</g>
<g>
	<g>
		<path d="M222.688,238.62c-32.956,2.922-100.805,11.936-184.871,39.417c-2.101,0.688-3.242,2.945-2.554,5.046
			c0.547,1.688,2.117,2.758,3.796,2.758c0.414,0,0.836-0.063,1.242-0.197c83.316-27.238,150.478-36.16,183.098-39.057
			c2.195-0.195,3.819-2.14,3.624-4.335C226.835,240.049,224.945,238.526,222.688,238.62z"/>
	</g>
</g>
<g>
	<g>
		<path d="M289.874,260.61c-2.211,0-4,1.788-4,3.999c0,1.007-0.617,102.828-50.664,241.854c-0.75,2.078,0.328,4.366,2.406,5.116
			c0.445,0.156,0.906,0.234,1.351,0.234c1.64,0,3.179-1.015,3.765-2.647c50.555-140.432,51.141-243.534,51.141-244.557
			C293.873,262.398,292.084,260.61,289.874,260.61z"/>
	</g>
</g>
<g>
	<g>
		<path d="M363.83,151.055c-1.561-1.562-4.093-1.562-5.655,0L142.817,366.413c-1.562,1.562-1.562,4.094,0,5.656
			c0.781,0.781,1.805,1.172,2.828,1.172c1.024,0,2.047-0.391,2.827-1.172L363.83,156.71
			C365.392,155.148,365.392,152.617,363.83,151.055z"/>
	</g>
</g>
<g>
	<g>
		<path d="M241.795,504.986L9.899,273.092c-1.562-1.562-4.093-1.562-5.655,0c-1.562,1.561-1.562,4.093,0,5.655l231.895,231.894
			c0.782,0.781,1.805,1.172,2.828,1.172s2.046-0.39,2.828-1.172C243.357,509.079,243.357,506.548,241.795,504.986z"/>
	</g>
</g>
<g>
	<g>
		<path d="M137.161,377.725c-6.242-6.233-16.381-6.233-22.622,0c-1.562,1.561-1.562,4.093,0,5.655s4.094,1.562,5.656,0
			c3.117-3.109,8.194-3.109,11.311,0c3.117,3.124,3.117,8.193,0,11.318c-1.562,1.562-1.562,4.093,0,5.655
			c0.782,0.781,1.805,1.172,2.828,1.172s2.047-0.39,2.827-1.171C143.402,394.113,143.402,383.966,137.161,377.725z"/>
	</g>
</g>
<g>
	<g>
		<path d="M202.191,363.602l-50.898-50.906c-1.562-1.562-4.093-1.562-5.655,0c-1.562,1.561-1.562,4.093,0,5.655l50.898,50.906
			c0.782,0.781,1.805,1.172,2.828,1.172c1.023,0,2.046-0.39,2.827-1.172C203.753,367.694,203.753,365.164,202.191,363.602z"/>
	</g>
</g>
<g>
	<g>
		<path d="M245.762,289.51c-0.313-2.187-2.328-3.702-4.523-3.397c-2.187,0.312-3.702,2.334-3.397,4.522
			c0.719,5.031-0.937,9.975-4.531,13.561c-3.585,3.586-8.49,5.264-13.552,4.53c-2.179-0.289-4.21,1.218-4.515,3.406
			c-0.312,2.187,1.211,4.21,3.398,4.515c1.148,0.164,2.288,0.242,3.421,0.242c6.32,0,12.342-2.476,16.903-7.038
			C244.278,304.555,246.816,296.947,245.762,289.51z"/>
	</g>
</g>
<g>
	<g>
		<path d="M225.375,269.122c-7.569-1.069-14.958,1.414-20.34,6.796c-5.382,5.391-7.858,12.803-6.796,20.341
			c0.289,1.993,2,3.438,3.96,3.438c0.187,0,0.375-0.016,0.562-0.041c2.188-0.312,3.71-2.335,3.398-4.523
			c-0.711-5.023,0.937-9.967,4.531-13.56c3.593-3.593,8.538-5.265,13.561-4.531c2.21,0.29,4.21-1.21,4.522-3.397
			S227.562,269.435,225.375,269.122z"/>
	</g>
</g>
<g>
	<g>
		<path d="M265.275,279.997l-16.974-39.596c-0.875-2.032-3.234-2.977-5.249-2.102c-2.032,0.875-2.977,3.226-2.102,5.257
			l16.975,39.596c0.649,1.516,2.124,2.422,3.671,2.422c0.532,0,1.063-0.102,1.578-0.32
			C265.205,284.379,266.142,282.027,265.275,279.997z"/>
	</g>
</g>
</svg>
