<?xml version="1.0" encoding="utf-8"?>
<!-- Generator: Adobe Illustrator 24.0.1, SVG Export Plug-In . SVG Version: 6.00 Build 0)  -->
<svg version="1.1" id="Layer_1" xmlns="http://www.w3.org/2000/svg" xmlns:xlink="http://www.w3.org/1999/xlink" x="0px" y="0px"
	 viewBox="0 0 480 480" style="enable-background:new 0 0 480 480;" xml:space="preserve">
<style type="text/css">
	.st0{fill:#E36414;stroke:#E36414;stroke-width:5;stroke-miterlimit:10;}
</style>
<path class="st0" d="M64,8v448c0,13.3,10.7,24,24,24s24-10.7,24-24V240h23.5c37,0,71.2,19.9,89.6,52c21.2,37.1,60.7,59.9,103.4,60
	H408c3,0,5.7-1.7,7.1-4.3c1.4-2.7,1.1-5.9-0.6-8.3L337.8,232l76.7-107.4c1.7-2.4,2-5.6,0.6-8.3c-1.4-2.7-4.1-4.3-7.1-4.3h-79.5
	c-37-0.1-71.2-19.9-89.6-52C217.7,22.9,178.2,0,135.5,0H72C67.6,0,64,3.6,64,8z M80,16h55.5c37,0,71.2,19.9,89.6,52
	c21.2,37.1,60.7,59.9,103.4,60h64l-71,99.4c-2,2.8-2,6.5,0,9.3l70.9,99.4h-64c-37-0.1-71.2-19.9-89.6-52
	c-21.2-37.1-60.7-59.9-103.4-60H80V16z M80,240h16v216c0,4.4-3.6,8-8,8s-8-3.6-8-8V240z"/>
</svg>
