<?xml version="1.0" encoding="utf-8"?>
<!-- Generator: Adobe Illustrator 24.0.1, SVG Export Plug-In . SVG Version: 6.00 Build 0)  -->
<svg version="1.1" id="Layer_1" xmlns="http://www.w3.org/2000/svg" xmlns:xlink="http://www.w3.org/1999/xlink" x="0px" y="0px"
	 viewBox="0 0 520 210.3" style="enable-background:new 0 0 520 210.3;" xml:space="preserve">
<style type="text/css">
	.st0{fill:#F2F2F2;}
</style>
<path class="st0" d="M1.6,192.2c0.7,0.4,1.4,0.5,2.1,0.5c1.5,0,3.1-0.8,3.9-2.3l57-105.3c0.1-0.3,3.1-6.3,9.2-6.3
	c0.9,0,1.8,0.5,2.8,1l-37.3,66.9c-1.2,2.1-0.4,4.8,1.7,6c0.7,0.4,1.4,0.6,2.1,0.6c1.5,0,3-0.8,3.9-2.3l36.8-65.9l13.8,10.3
	c1.7,1.3,4.2,1.1,5.7-0.4l23.2-23.2l14.4,14.4c1.7,1.7,4.5,1.7,6.2,0l13.1-13.1c1.7-1.7,1.7-4.5,0-6.2s-4.5-1.7-6.2,0L143.9,77
	l-14.4-14.4c-1.7-1.7-4.5-1.7-6.2,0L99.6,86.2L85.2,75.4L84.7,75c-2.3-1.8-6.2-4.9-11-4.9c-11.8,0-16.9,10.8-17,11L-0.2,186.3
	C-1.3,188.4-0.6,191.1,1.6,192.2z"/>
<path class="st0" d="M56.2,201.5H3.7c-2.4,0-4.4,2-4.4,4.4s2,4.4,4.4,4.4h52.6c2.4,0,4.4-2,4.4-4.4
	C60.6,203.4,58.6,201.5,56.2,201.5z"/>
<path class="st0" d="M127.2,201.5C127.1,201.5,127.1,201.5,127.2,201.5H78.1v-8.8h8.8c2.4,0,4.4-2,4.4-4.4c0-0.9-0.3-1.6-0.7-2.3
	l-12.8-34.3c-0.7-1.7-2.3-2.8-4.1-2.8c-1.8,0-3.4,1.1-4.1,2.8l-13.1,35.1c-0.5,1.3-0.3,2.9,0.5,4.1s2.2,1.9,3.6,1.9h8.8v13.1
	c0,2.4,2,4.4,4.4,4.4h53.4c2.4,0,4.4-2,4.4-4.4C131.5,203.5,129.6,201.6,127.2,201.5z M66.9,184l6.8-18.2l6.8,18.2H66.9z"/>
<path class="st0" d="M193.2,97.1c-0.7,2.3-3.1,3.6-5.4,3c-1.1-0.4-2.1-1.1-2.6-2.1L140,15.2c-0.3-0.5-3.2-6.5-9.3-6.5s-9,6-9.2,6.3
	L94.1,65.7c-1.1,2.1-3.8,2.9-6,1.8c-2.2-1.1-2.9-3.8-1.8-6L113.6,11c0.1-0.2,5.2-11,17-11s16.9,10.8,17.1,11.3l44.9,82.3
	c0.1,0.1,0.1,0.1,0.1,0.2C193.4,94.8,193.5,95.9,193.2,97.1z"/>
<path class="st0" d="M117.1,125.8h4.9l26.1,18.6v-18.6H165v47.8h-6.4L134,157.2v16.4h-16.8L117.1,125.8L117.1,125.8z M175.3,125.9
	c9.9-1,17.4-1.5,22.5-1.5s9.1,0.4,12,1.1c3,0.7,5.4,1.9,7.3,3.4c3.7,3,5.6,8,5.6,14.9c0,3.1-0.6,6-1.8,8.6s-2.8,4.8-4.8,6.7
	c-2,1.9-4.4,3.3-7.2,4.3c-2.7,1-5.7,1.6-8.8,1.6l-5.3-0.1v8.7h-19.6v-47.7H175.3z M202.3,136.8c-1.7,0-4.2,1.2-7.5,3.6v11.3l3.5-1.7
	c2.3-1.1,3.9-2.2,4.9-3.3c1.7-1.9,2.6-3.9,2.6-5.8s-0.6-3.2-1.9-3.8C203.3,136.9,202.9,136.8,202.3,136.8z M259,170.9
	c-3.8,2.6-7.8,3.9-12.1,3.9c-4.2,0-7.7-1.2-10.3-3.6c-2.7-2.4-4-5.7-4-9.7v-15.6h-3.4v-9.5h3.4v-10.1l17.9-1.8v11.9h8.5v9.5h-8.5
	v9.4c0,2.8,0.6,4.9,1.9,6.1c1.3,1.3,3.5,1.9,6.6,1.9L259,170.9L259,170.9z M294.2,150.4c-1.8,0-3.7,0.7-5.7,2
	c-1.9,1.3-2.9,2.6-2.9,3.8v17.4h-18v-37.2h18v4c1-1.5,2.3-2.8,3.8-3.7c1.5-0.9,3.1-1.5,4.8-1.6L294.2,150.4L294.2,150.4z
	 M306.7,170.3c-1.6-1.5-2.9-3.4-3.8-5.6c-0.9-2.3-1.4-4.7-1.4-7.3c0-2.6,0.3-4.9,0.8-6.8c1-3.8,2.9-7,5.5-9.6
	c1.2-1.3,2.6-2.4,4.1-3.2c3.1-1.8,6.4-2.7,9.9-2.7s6.5,1.1,9.1,3.4c0.8,0.7,1.6,1.6,2.2,2.5l4.3-4.6h9.8v37.2h-9.8l-4.3-6.2
	c-3.3,4.8-8.2,7.3-14.9,7.3c-1.8,0-3.8-0.3-5.9-1.1C310.1,172.9,308.3,171.8,306.7,170.3z M330.9,147.6c-0.7-0.4-1.6-0.6-2.6-0.6
	s-2.1,0.4-3.2,1.1s-2.1,1.6-3,2.7c-2,2.4-2.9,4.9-2.9,7.4c0,1.8,0.5,3,1.6,3.7c1,0.7,2.5,0.6,4.6-0.3s3.9-2,5.5-3.3V147.6z
	 M378.8,162.2c2,0,4.9-1.4,8.7-4.3v14.7c-6.5,2.5-12.6,2.8-18.1,1s-9.5-5-11.8-9.5c-1.2-2.3-1.7-5-1.7-8.1c0-6.3,2.2-11.3,6.5-15.2
	c4.3-3.9,9.9-5.8,16.8-5.8c2.9,0,5.4,0.4,7.7,1.3v11.5c-0.5-0.5-1.3-0.7-2.3-0.7s-2,0.3-3.1,0.9s-2.1,1.4-3.1,2.5
	c-2.1,2.4-3.2,4.9-3.2,7.4s0.8,3.9,2.3,4.3C378,162.2,378.4,162.2,378.8,162.2z M414,161.5c-0.3,0.5-0.4,0.8-0.5,1v11h-15.8v-50.4
	h15.5v24.3l7.1-11.1h17.6l-11.5,16.3l13.3,21h-18.3L414,161.5z M469.2,147c0-1.8-0.8-2.6-2.5-2.6c-1.9,0.2-3.1,1.1-3.7,2.9
	c-0.3,0.8-0.5,1.8-0.6,2.9s-0.3,2.3-0.5,3.5l6.6-1.5l0.6-4.6L469.2,147z M465.1,160.6c0,0-0.6,0-1.6,0c-0.5,0-1,0-1.5-0.1
	c0,2.4,1.3,3.7,3.8,3.9c0.7,0.1,1.4,0.1,2,0.1c1.7,0,3.8-0.4,6.4-1.2c2.6-0.8,4.9-2,6.9-3.8l1.9,9.3c-4.5,3.9-11.2,5.8-20.2,5.8
	c-5.2,0-9.6-1.5-13.3-4.5c-4-3.3-6-7.9-6-13.7c0-4.4,1.1-8.3,3.4-11.8c2.1-3.2,5-5.6,8.6-7.3c3.6-1.7,7.5-2.5,11.7-2.5
	c5.4,0,9.5,1.2,12.3,3.6s4.2,5.3,4.2,8.8s-1.7,6.6-5,9.3C475.3,159.3,470.8,160.6,465.1,160.6z M519.6,150.4c-1.8,0-3.7,0.7-5.7,2
	c-1.9,1.3-2.9,2.6-2.9,3.8v17.4h-18v-37.2h18v4c1-1.5,2.3-2.8,3.8-3.7c1.5-0.9,3.1-1.5,4.8-1.6V150.4z"/>
</svg>
