<?xml version="1.0" encoding="utf-8"?>
<!-- Generator: Adobe Illustrator 24.0.2, SVG Export Plug-In . SVG Version: 6.00 Build 0)  -->
<svg version="1.1" id="Capa_1" xmlns="http://www.w3.org/2000/svg" xmlns:xlink="http://www.w3.org/1999/xlink" x="0px" y="0px"
	 viewBox="0 0 512 512" style="enable-background:new 0 0 512 512;" xml:space="preserve">
<style type="text/css">
	.st0{fill:#E36414;}
</style>
<g>
	<g>
		<path class="st0" d="M27.8,95.7c0,24.8,20.2,45,45,45s45-20.2,45-45s-20.2-45-45-45S27.8,70.9,27.8,95.7z"/>
	</g>
</g>
<g>
</g>
<g>
	<g>
		<path class="st0" d="M0.1,95c1.1,19.5,10.4,37.7,25.7,49.9l153.6,124.3l69.8-69.8l-127-151.2C110.1,33,92,23.7,72.5,22.6
			C33.5,20.4-2.1,56,0.1,95z M62.5,85c5.9-5.9,15.4-5.9,21.2,0c5.9,5.9,5.9,15.4,0,21.2s-15.4,5.9-21.2,0
			C56.7,100.4,56.7,90.9,62.5,85z"/>
	</g>
</g>
<g>
	<g>
		<path class="st0" d="M203.7,414.5l53,53c29.2,29.2,76.8,29.2,106.1,0l0.3-0.3c-15.6-2.2-30.7-9-42.7-20.9
			c-5.9-5.9-5.9-15.4,0-21.2c5.9-5.9,15.4-5.9,21.2,0c17.5,17.5,46.1,17.5,63.6,0l21.5-21.5c-15.6-2.2-30.7-9-42.7-20.9
			c-5.9-5.9-5.9-15.4,0-21.2c5.9-5.9,15.3-5.9,21.2,0c17.5,17.5,46.1,17.5,63.6,0l21.2-21.2c29.2-29.2,29.2-76.8,0-106.1L468.9,213
			c-5.9-5.9-15.4-5.9-21.2,0c-5.9,5.9-5.9,15.4,0,21.2c5.9,5.9,5.9,15.4,0,21.2c-5.9,5.9-15.4,5.9-21.2,0l-31.8-31.8L203.7,414.5z"
			/>
	</g>
</g>
<g>
	<g>
		<path class="st0" d="M183.6,392.2l188.8-188.8c-29.1-19.2-68.8-16.1-94.4,9.5l-84.9,84.9C167.5,323.5,164.3,363.1,183.6,392.2z"/>
	</g>
</g>
</svg>
