<?xml version="1.0" encoding="utf-8"?>
<!-- Generator: Adobe Illustrator 24.0.1, SVG Export Plug-In . SVG Version: 6.00 Build 0)  -->
<svg version="1.1" id="Layer_1" xmlns="http://www.w3.org/2000/svg" xmlns:xlink="http://www.w3.org/1999/xlink" x="0px" y="0px"
	 viewBox="0 0 19.5 19.5" style="enable-background:new 0 0 19.5 19.5;" xml:space="preserve">
<style type="text/css">
	.st0{fill:#FB8B24;}
</style>
<g>
	<path class="st0" d="M19,7.2l-6.3-0.5l-2.5-5.9c-0.2-0.4-0.7-0.4-0.9,0L6.8,6.6L0.5,7.2C0,7.2-0.2,7.8,0.2,8L5,12.2l-1.4,6.2
		c-0.1,0.4,0.4,0.8,0.7,0.5l5.5-3.3l5.5,3.3c0.4,0.2,0.8-0.1,0.7-0.5l-1.4-6.2L19.3,8C19.6,7.8,19.5,7.2,19,7.2z M12.7,11.1
		c-0.3,0.2-0.4,0.6-0.3,1l0.8,3.3l-2.9-1.8c-0.3-0.2-0.7-0.2-1,0l-2.9,1.8l0.8-3.3c0.1-0.4,0-0.7-0.3-1L4.2,8.9l3.4-0.3
		c0.4,0,0.7-0.3,0.8-0.6l1.3-3.2L11.1,8c0.1,0.3,0.5,0.6,0.8,0.6l3.4,0.3C15.3,8.9,12.7,11.1,12.7,11.1z"/>
</g>
</svg>
