<?xml version="1.0" encoding="utf-8"?>
<!-- Generator: Adobe Illustrator 24.0.1, SVG Export Plug-In . SVG Version: 6.00 Build 0)  -->
<svg version="1.1" id="Layer_1" xmlns="http://www.w3.org/2000/svg" xmlns:xlink="http://www.w3.org/1999/xlink" x="0px" y="0px"
	 viewBox="0 0 1440 900" style="enable-background:new 0 0 1440 900;" xml:space="preserve">
<style type="text/css">
	.st0{clip-path:url(#SVGID_2_);}
	.st1{opacity:0.1;enable-background:new    ;}
	.st2{fill:none;stroke:#535461;stroke-width:2;stroke-miterlimit:10;}
	.st3{fill:#6C63FF;}
	.st4{fill:#FFD037;}
	.st5{opacity:0.1;fill:#6C63FF;enable-background:new    ;}
	.st6{fill:#0F4C5C;}
	.st7{fill:none;stroke:#535461;stroke-miterlimit:10;}
	.st8{opacity:0.2;fill:#F5F5F5;enable-background:new    ;}
	.st9{fill:#A8A8A8;}
	.st10{opacity:0.2;enable-background:new    ;}
	.st11{fill:#FC6681;}
	.st12{fill:url(#SVGID_3_);}
	.st13{fill:#FDC2CC;}
	.st14{opacity:0.1;}
	.st15{fill:#D39999;}
	.st16{opacity:5.000000e-02;enable-background:new    ;}
	.st17{fill:#7E5659;}
	.st18{fill:#865A61;}
	.st19{opacity:5.000000e-02;}
	.st20{fill:url(#SVGID_4_);}
	.st21{fill:#CD939C;}
	.st22{fill:#F6C6CD;}
</style>
<g>
	<defs>
		<rect id="SVGID_1_" x="100.5" y="-0.4" width="1238.1" height="900.4"/>
	</defs>
	<clipPath id="SVGID_2_">
		<use xlink:href="#SVGID_1_"  style="overflow:visible;"/>
	</clipPath>
	<g class="st0">
		<path class="st1" d="M788.1,433.9c-30.2,0-59.7,8.4-85.3,24.3c-0.3-42.7-17.5-83.6-47.8-113.7c-30.3-30.1-71.3-47-114.1-47l0,0
			c-19.3,0-38.4,3.4-56.4,10.1v-39.2c0-21.3-4.2-42.3-12.3-62c-8.1-19.6-20.1-37.5-35.1-52.5c-15-15-32.9-27-52.5-35.1
			c-19.6-8.1-40.7-12.3-62-12.3l0,0c-42.9,0-84.1,17.1-114.5,47.4c-30.4,30.4-47.4,71.6-47.4,114.5v429.7H950V595.8
			c0-42.9-17.1-84.1-47.4-114.5C872.2,450.9,831,433.9,788.1,433.9L788.1,433.9z"/>
		<path class="st2" d="M971.5,678.8c0,0,22.7-35.6,25.4-50.9c1.9-9.9,4.5-19.7,7.9-29.2"/>
		<path class="st3" d="M1010,629.2l-14.3,1.2C995.8,630.4,1003.3,643.5,1010,629.2z"/>
		<path class="st3" d="M985.1,621.2l11.4,9.1C996.4,630.3,981.7,636.2,985.1,621.2z"/>
		<path class="st3" d="M1011.8,616.7l-12.9,1.7C999,618.4,1010.3,627.6,1011.8,616.7z"/>
		<path class="st3" d="M990.5,612.1l8.5,6C999,618.1,988.7,622.5,990.5,612.1z"/>
		<path class="st3" d="M1002.2,606.7c0,0,10.6-2.8,12.1-2.2c1.5,0.6,0.6,7.3-3.6,7.6C1006.4,612.4,1002.2,606.7,1002.2,606.7z"/>
		<path class="st3" d="M995.1,598.7c0,0,6.7,6.4,7,8c0.3,1.6-5.5,5.2-8.5,0C990.5,601.5,995.1,598.7,995.1,598.7z"/>
		<path class="st4" d="M1007.6,602.4c1.7,0,3-1.4,3-3c0-1.7-1.4-3-3-3c-1.7,0-3,1.4-3,3C1004.5,601,1005.9,602.4,1007.6,602.4z"/>
		<path class="st4" d="M1002.1,600.8c1.7,0,3-1.4,3-3s-1.4-3-3-3c-1.7,0-3,1.4-3,3S1000.4,600.8,1002.1,600.8z"/>
		<path class="st5" d="M844.4,323.7c-11.4,11.5-12.1,29.1-12.1,29.1s17.6-1,28.9-12.5c11.3-11.5,12.1-29.1,12.1-29.1
			S855.8,312.2,844.4,323.7z"/>
		<path class="st5" d="M747.9,245.3c4,15.6,18.7,25.4,18.7,25.4s8.2-15.6,4.2-31.2c-4-15.6-18.7-25.3-18.7-25.3
			S743.9,229.6,747.9,245.3z"/>
		<path class="st5" d="M953.5,394c-11.4,11.5-12.1,29.1-12.1,29.1s17.6-1,28.9-12.5c11.3-11.5,12.1-29.1,12.1-29.1
			S964.8,382.5,953.5,394z"/>
		<path class="st5" d="M998.8,492.9c-1.3,16.1,9.4,30.1,9.4,30.1s12.9-12.1,14.2-28.1c1.3-16.1-9.4-30.1-9.4-30.1
			S1000.1,476.8,998.8,492.9z"/>
		<path class="st5" d="M1261.4,418c-1.3,16.1,9.4,30.1,9.4,30.1s12.9-12.1,14.2-28.1c1.3-16.1-9.4-30.1-9.4-30.1
			S1262.7,401.9,1261.4,418z"/>
		<path class="st6" d="M173.7,686.1c0,0,505.1-96.3,1061.8,0S-102.9,767.6,173.7,686.1z"/>
		<path class="st6" d="M453.7,701.8c0.9,11.5-10.3,20.2-21.1,24.4c-10.7,4.2-23,6.8-30.4,15.6c-2.1,2.3-3.4,5.2-3.7,8.3
			c-0.3,6.7,5.9,11.9,12,14.9c17.3,8.6,37.1,9.6,56.1,12.9c19,3.3,39,10.1,49.9,26c5.1,7.4,7.8,16.3,13.5,23.3
			c9.1,11.1,24.7,15.5,38.9,13.6c14.2-1.9,27.2-9.3,38.3-18.3c12.5-10.1,24-22.7,39.6-26.7c26.8-6.9,51.8,13.8,77.4,24.4
			c30.9,12.7,66.1,10.6,98.6,2.6c7.3-1.8,14.6-3.9,20.8-8.2c7.1-4.9,12.3-12.1,19-17.6c16.6-13.5,40-14.1,61.4-13.9l62.2,0.4
			c12.3,0.1,25.4-0.1,35.7-6.8c10.5-6.9,16.1-20.1,15.4-32.7c-0.7-12.6-7-24.5-15.8-33.4c-19.6-20-49.3-25.7-77-29.6
			c-133.6-18.4-269.1-16.9-404-15.4c-22.6,0.3-45.2,0.5-67.6,3.6c-5.6,0.8-28.7,1.9-30.9,7.8C440,682.4,453.2,694.9,453.7,701.8z"/>
		<path class="st6" d="M296.9,808.7c25.2,0,45.7-3.5,45.7-7.7c0-4.3-20.5-7.7-45.7-7.7c-25.2,0-45.7,3.5-45.7,7.7
			C251.2,805.2,271.6,808.7,296.9,808.7z"/>
		<path class="st6" d="M333.2,872.8c25.2,0,45.7-3.5,45.7-7.7c0-4.3-20.5-7.7-45.7-7.7c-25.2,0-45.7,3.5-45.7,7.7
			C287.5,869.4,308,872.8,333.2,872.8z"/>
		<path class="st6" d="M191.2,763.2c16.9,0,30.6-2.3,30.6-5.2c0-2.9-13.7-5.2-30.6-5.2c-16.9,0-30.6,2.3-30.6,5.2
			C160.6,760.9,174.3,763.2,191.2,763.2z"/>
		<path class="st6" d="M440.6,829.5c16.9,0,30.6-2.3,30.6-5.2c0-2.9-13.7-5.2-30.6-5.2c-16.9,0-30.6,2.3-30.6,5.2
			C410,827.2,423.7,829.5,440.6,829.5z"/>
		<path class="st6" d="M1097.3,786.5c16.9,0,30.6-2.3,30.6-5.2c0-2.9-13.7-5.2-30.6-5.2c-16.9,0-30.6,2.3-30.6,5.2
			C1066.7,784.2,1080.4,786.5,1097.3,786.5z"/>
		<path class="st6" d="M904,837c16.9,0,30.6-2.3,30.6-5.2c0-2.9-13.7-5.2-30.6-5.2s-30.6,2.3-30.6,5.2
			C873.4,834.7,887.1,837,904,837z"/>
		<path class="st6" d="M1227.5,808.7c25.2,0,45.7-3.5,45.7-7.7c0-4.3-20.5-7.7-45.7-7.7c-25.2,0-45.7,3.5-45.7,7.7
			C1181.7,805.2,1202.2,808.7,1227.5,808.7z"/>
		<path class="st6" d="M1043.4,856.8c40.8,0,73.8-5.6,73.8-12.5s-33.1-12.5-73.8-12.5c-40.8,0-73.8,5.6-73.8,12.5
			S1002.7,856.8,1043.4,856.8z"/>
		<path class="st6" d="M694.2,900c57,0,103.2-7.8,103.2-17.4c0-9.6-46.2-17.4-103.2-17.4c-57,0-103.2,7.8-103.2,17.4
			C591,892.2,637.2,900,694.2,900z"/>
		<path class="st3" d="M1235.9,535.3c0,0-23.1,23.1-10.1,57.4c13.1,34.3-22.4,91.3-22.4,91.3l1.1-0.2c47.5-8.4,71.1-62.7,44.7-103
			C1239.4,565.9,1231.4,548.3,1235.9,535.3z"/>
		<path class="st7" d="M1235.9,535.3c0,0-13,28.3,0,51.4c13,23.1,2.3,88-32.4,97.3"/>
		<path class="st3" d="M1277.1,628.8c0,0-26.4-4.2-28.8,19.4c-2.4,23.6-50.7,26.9-50.7,26.9l0.9,0.6c39.9,26.1,78,16.7,72.3-18.1
			C1268.6,644.7,1268.8,631.7,1277.1,628.8z"/>
		<path class="st8" d="M1277.1,628.8c0,0-26.4-4.2-28.8,19.4c-2.4,23.6-50.7,26.9-50.7,26.9l0.9,0.6c39.9,26.1,78,16.7,72.3-18.1
			C1268.6,644.7,1268.8,631.7,1277.1,628.8z"/>
		<path class="st7" d="M1277.1,628.8c0,0-20.5,4.5-18.8,23.1c1.7,18.6-30.4,40.9-60.7,23.2"/>
		<path class="st2" d="M966.6,651.8c0,0-7.1-24,1.3-41.6c3.6-7.4,4.6-15.7,3.1-23.8c-0.8-3.8-1.9-7.5-3.4-11.2"/>
		<path class="st3" d="M972.9,564.1c0,2.9-5.3,11.5-5.3,11.5s-5.3-8.5-5.3-11.5c0-1.4,0.6-2.8,1.6-3.8c1-1,2.4-1.6,3.8-1.6
			c1.4,0,2.8,0.6,3.8,1.6C972.3,561.4,972.9,562.7,972.9,564.1L972.9,564.1z"/>
		<path class="st3" d="M981.7,580.4c-1.6,2.5-10.7,6.7-10.7,6.7s0.2-10,1.8-12.5c0.4-0.6,0.9-1.1,1.4-1.6c0.6-0.4,1.2-0.7,1.9-0.9
			c0.7-0.2,1.4-0.2,2.1-0.1c0.7,0.1,1.4,0.4,2,0.8c0.6,0.4,1.1,0.9,1.5,1.5c0.4,0.6,0.7,1.3,0.8,2c0.1,0.7,0.1,1.4,0,2.1
			C982.4,579.2,982.1,579.8,981.7,580.4L981.7,580.4z"/>
		<path class="st3" d="M981.3,608.2c-2.6,1.3-12.6,0.4-12.6,0.4s5.2-8.6,7.8-9.9c1.3-0.6,2.7-0.7,4.1-0.3c1.3,0.4,2.4,1.4,3.1,2.7
			c0.6,1.3,0.7,2.7,0.3,4.1C983.5,606.5,982.5,607.6,981.3,608.2z"/>
		<path class="st3" d="M976.3,629.2c-2.4,1.7-12.3,2.5-12.3,2.5s3.7-9.3,6.1-11.1c0.6-0.5,1.2-0.8,1.9-1c0.7-0.2,1.4-0.2,2.1-0.2
			c0.7,0.1,1.4,0.3,2,0.7c0.6,0.4,1.2,0.8,1.6,1.4c0.4,0.6,0.7,1.2,0.9,1.9c0.2,0.7,0.2,1.4,0.1,2.1c-0.1,0.7-0.4,1.4-0.8,2
			C977.4,628.2,976.9,628.7,976.3,629.2L976.3,629.2z"/>
		<path class="st3" d="M959.8,587.7c2.1,2,11.9,4.2,11.9,4.2s-2.4-9.8-4.5-11.8c-1-0.9-2.4-1.4-3.7-1.4c-1.4,0-2.7,0.6-3.7,1.6
			c-1,1-1.5,2.3-1.5,3.7C958.3,585.4,958.8,586.7,959.8,587.7L959.8,587.7z"/>
		<path class="st3" d="M954.2,612.3c2.6,1.3,12.6,0.4,12.6,0.4s-5.2-8.6-7.8-9.9c-0.6-0.3-1.3-0.6-2-0.6c-0.7-0.1-1.4,0-2.1,0.2
			c-0.7,0.2-1.3,0.6-1.9,1c-0.5,0.5-1,1-1.3,1.7c-0.3,0.6-0.5,1.3-0.6,2c0,0.7,0,1.4,0.3,2.1c0.2,0.7,0.6,1.3,1.1,1.8
			C953,611.6,953.6,612,954.2,612.3L954.2,612.3z"/>
		<path class="st3" d="M952.1,636.9c2.4,1.7,12.4,2.5,12.4,2.5s-3.7-9.3-6-11.1c-0.6-0.4-1.2-0.8-1.9-1c-0.7-0.2-1.4-0.2-2.1-0.2
			c-0.7,0.1-1.4,0.3-2,0.7c-0.6,0.4-1.2,0.8-1.6,1.4c-0.4,0.6-0.7,1.2-0.9,1.9c-0.2,0.7-0.2,1.4-0.1,2.1c0.1,0.7,0.4,1.4,0.8,2
			C951,636,951.5,636.5,952.1,636.9z"/>
		<path class="st9" d="M951.3,649.5c0,0,12.9-2.6,16.3-6c3.4-3.4,18.9-9.5,20.6-5.2c1.7,4.3,23.2,18.9,8.6,21.5
			c-14.6,2.6-34.4,3.4-38.7,1.7C953.9,659.8,951.3,649.5,951.3,649.5z"/>
		<path class="st10" d="M996.9,658.2c-14.6,2.6-34.4,3.4-38.7,1.7c-3.3-1.3-5.5-7.6-6.4-10.5l-0.4,0.1c0,0,2.6,10.3,6.8,12
			c4.2,1.7,24.1,0.9,38.7-1.7c4.2-0.8,5.4-2.5,5-4.7C1001.4,656.5,1000,657.6,996.9,658.2z"/>
		<path class="st9" d="M857,726.6c0,0,39.1-7.8,49.6-18.3c10.4-10.4,57.4-28.7,62.6-15.7c5.2,13.1,70.5,57.4,26.1,65.2
			c-44.3,7.8-104.4,10.4-117.4,5.2C864.8,757.9,857,726.6,857,726.6z"/>
		<path class="st10" d="M995.3,753.1c-44.3,7.8-104.4,10.4-117.4,5.2c-9.9-4-16.8-23.1-19.6-32l-1.3,0.3c0,0,7.8,31.3,20.9,36.5
			c13,5.2,73.1,2.6,117.4-5.2c12.8-2.3,16.5-7.6,15.1-14.3C1009.3,748,1004.9,751.4,995.3,753.1z"/>
		<path class="st3" d="M203.3,574.2c17.4,25.7,11.9,117.8,11.9,117.8s-87.5-29-105-54.7c-4.3-6.1-7.3-13-8.8-20.3
			c-1.6-7.3-1.7-14.8-0.3-22.1c1.4-7.3,4.2-14.3,8.2-20.5c4.1-6.2,9.4-11.6,15.5-15.8c6.2-4.2,13.1-7.1,20.4-8.6
			c7.3-1.5,14.8-1.5,22.1,0c7.3,1.4,14.2,4.3,20.4,8.5C193.9,562.6,199.2,568,203.3,574.2L203.3,574.2z"/>
		<path class="st1" d="M203.3,574.2c17.4,25.7,11.9,117.8,11.9,117.8s-87.5-29-105-54.7c-4.3-6.1-7.3-13-8.8-20.3
			c-1.6-7.3-1.7-14.8-0.3-22.1c1.4-7.3,4.2-14.3,8.2-20.5c4.1-6.2,9.4-11.6,15.5-15.8c6.2-4.2,13.1-7.1,20.4-8.6
			c7.3-1.5,14.8-1.5,22.1,0c7.3,1.4,14.2,4.3,20.4,8.5C193.9,562.6,199.2,568,203.3,574.2L203.3,574.2z"/>
		<path class="st7" d="M125.5,559.2c0,0,65.6,50.7,90,132.9"/>
		<path class="st3" d="M232.1,622.3c0,0-46.6-8-14.7,69.2c0,0,32.4-12.3,34.9-43.1c0.5-6-1.2-11.9-4.8-16.7
			c-3.6-4.8-8.8-8.1-14.7-9.3L232.1,622.3z"/>
		<path class="st7" d="M232.7,622.2c0,0,8.9,42.7-15.4,69.3"/>
		<path class="st3" d="M1199,620.7c0,0,6.2,8.2-2.9,20.5c-9.1,12.3-16.7,22.7-13.6,30.4c0,0,13.8-22.9,25-23.2
			C1218.7,648,1211.3,634.4,1199,620.7z"/>
		<path class="st1" d="M1199,620.7c0.5,0.8,1,1.7,1.3,2.6c10.9,12.8,16.8,24.8,6.3,25.1c-9.8,0.3-21.6,17.8-24.4,22.2
			c0.1,0.3,0.2,0.7,0.3,1c0,0,13.8-22.9,25-23.2C1218.8,648,1211.3,634.4,1199,620.7z"/>
		<path class="st4" d="M1210.6,631.1c0,2.9-0.3,5.2-0.7,5.2c-0.4,0-0.7-2.3-0.7-5.2c0-2.9,0.4-1.5,0.8-1.5
			C1210.4,629.5,1210.6,628.2,1210.6,631.1z"/>
		<path class="st4" d="M1214.6,634.5c-2.5,1.4-4.7,2.2-4.9,1.9c-0.2-0.4,1.7-1.7,4.2-3.1s1.5-0.4,1.7,0
			C1215.8,633.6,1217.1,633.1,1214.6,634.5z"/>
		<path class="st3" d="M1166,620.7c0,0-6.2,8.2,2.9,20.5c9.1,12.3,16.7,22.7,13.6,30.4c0,0-13.8-22.9-25-23.2
			C1146.3,648,1153.7,634.4,1166,620.7z"/>
		<path class="st1" d="M1166,620.7c-0.5,0.8-1,1.7-1.3,2.6c-10.9,12.8-16.8,24.8-6.3,25.1c9.8,0.3,21.6,17.8,24.4,22.2
			c-0.1,0.3-0.2,0.7-0.3,1c0,0-13.8-22.9-25-23.2C1146.3,648,1153.7,634.4,1166,620.7z"/>
		<path class="st4" d="M1154.4,631.1c0,2.9,0.3,5.2,0.7,5.2c0.4,0,0.7-2.3,0.7-5.2c0-2.9-0.4-1.5-0.8-1.5S1154.4,628.2,1154.4,631.1
			z"/>
		<path class="st4" d="M1150.4,634.5c2.5,1.4,4.7,2.2,4.9,1.9c0.2-0.4-1.7-1.7-4.2-3.1c-2.5-1.4-1.5-0.4-1.7,0
			C1149.2,633.6,1147.9,633.1,1150.4,634.5z"/>
		<path class="st9" d="M1156.4,670.5c0,0,17.5-0.5,22.7-4.3c5.3-3.7,26.9-8.2,28.2-2.2c1.3,6,26.2,29.9,6.5,30
			c-19.7,0.2-45.8-3.1-51.1-6.3C1157.5,684.6,1156.4,670.5,1156.4,670.5z"/>
		<path class="st10" d="M1214.2,691.9c-19.7,0.2-45.8-3.1-51.1-6.3c-4-2.4-5.6-11.2-6.1-15.2h-0.6c0,0,1.1,14.1,6.4,17.3
			c5.2,3.2,31.3,6.4,51.1,6.3c5.7,0,7.7-2.1,7.5-5.1C1220.6,690.8,1218.4,691.9,1214.2,691.9z"/>
		<path class="st3" d="M1246.4,788.3c2.1-1.7,3.6-4,4.4-6.6c0.6-2.6-0.5-5.7-3-6.7c-2.8-1.1-5.8,0.9-8,2.8c-2.3,2-4.9,4.2-7.8,3.8
			c1.5-1.4,2.7-3.1,3.3-5.1c0.6-2,0.8-4,0.4-6.1c-0.1-0.8-0.5-1.6-1-2.3c-1.6-1.7-4.4-0.9-6.2,0.4c-5.9,4.2-7.6,12.2-7.6,19.4
			c-0.6-2.6-0.1-5.3-0.1-8c0-2.6-0.8-5.7-3-7.1c-1.4-0.8-3-1.2-4.5-1.1c-2.7-0.1-5.7,0.2-7.4,2.1c-2.3,2.4-1.7,6.5,0.3,9.1
			c2,2.6,4.9,4.3,7.7,6.2c2.2,1.3,4.1,3.1,5.5,5.2c0.2,0.3,0.3,0.6,0.4,0.9h16.7C1239.8,793.5,1243.3,791.1,1246.4,788.3
			L1246.4,788.3z"/>
		<path class="st3" d="M459.5,812c2.1-1.7,3.6-4,4.4-6.6c0.6-2.6-0.6-5.7-3-6.7c-2.8-1.1-5.8,0.9-8,2.8c-2.3,2-4.9,4.2-7.8,3.8
			c1.5-1.4,2.7-3.1,3.3-5.1c0.6-2,0.8-4,0.4-6.1c-0.1-0.8-0.5-1.6-1-2.3c-1.6-1.7-4.4-1-6.2,0.4c-5.9,4.2-7.6,12.2-7.6,19.4
			c-0.6-2.6-0.1-5.3-0.1-8c0-2.6-0.8-5.7-3-7.1c-1.4-0.7-3-1.1-4.5-1.1c-2.7-0.1-5.6,0.2-7.4,2.1c-2.3,2.4-1.7,6.5,0.3,9.1
			c2,2.6,4.9,4.3,7.7,6.2c2.2,1.3,4.1,3.1,5.5,5.2c0.2,0.3,0.3,0.6,0.4,0.9h16.6C452.9,817.2,456.4,814.8,459.5,812L459.5,812z"/>
		<path class="st2" d="M346.9,706.1c0,0-16-54.2,3-94.2c8.1-16.7,10.5-35.5,6.9-53.7c-1.8-8.6-4.3-17.1-7.6-25.2"/>
		<path class="st3" d="M361,507.8c0,6.6-12,25.9-12,25.9s-12-19.3-12-25.9c0-3.2,1.3-6.3,3.5-8.5c2.3-2.3,5.3-3.5,8.5-3.5
			c3.2,0,6.3,1.3,8.5,3.5C359.8,501.5,361,504.6,361,507.8L361,507.8z"/>
		<path class="st3" d="M380.9,544.6c-3.6,5.6-24.2,15.2-24.2,15.2s0.4-22.7,4-28.3c0.9-1.3,2-2.5,3.3-3.4c1.3-0.9,2.8-1.5,4.3-1.9
			c1.5-0.3,3.1-0.4,4.7-0.1c1.6,0.3,3,0.9,4.4,1.7c1.3,0.9,2.5,2,3.4,3.3c0.9,1.3,1.5,2.8,1.9,4.3c0.3,1.5,0.4,3.1,0.1,4.7
			C382.4,541.7,381.8,543.2,380.9,544.6z"/>
		<path class="st3" d="M380.1,607.5c-5.9,3-28.6,0.9-28.6,0.9s11.8-19.4,17.7-22.4c1.4-0.8,3-1.2,4.6-1.4c1.6-0.1,3.2,0,4.7,0.5
			c1.5,0.5,2.9,1.3,4.2,2.3c1.2,1,2.2,2.3,2.9,3.7c0.7,1.4,1.1,3,1.3,4.6c0.1,1.6-0.1,3.2-0.6,4.7c-0.5,1.5-1.3,2.9-2.4,4.1
			C382.8,605.8,381.5,606.8,380.1,607.5z"/>
		<path class="st3" d="M368.7,654.9c-5.3,3.9-28,5.7-28,5.7s8.3-21.1,13.6-25.1c1.3-1,2.7-1.8,4.3-2.3c1.6-0.5,3.2-0.6,4.8-0.4
			c1.6,0.2,3.2,0.7,4.6,1.5c1.4,0.8,2.6,1.9,3.6,3.2c1,1.3,1.7,2.8,2,4.4c0.4,1.6,0.4,3.2,0.1,4.8c-0.3,1.6-0.9,3.1-1.8,4.5
			C371.1,652.8,370,653.9,368.7,654.9L368.7,654.9z"/>
		<path class="st3" d="M331.5,561c4.8,4.6,27,9.4,27,9.4s-5.4-22.1-10.2-26.7c-2.3-2.2-5.4-3.4-8.6-3.4c-3.2,0-6.2,1.4-8.5,3.6
			c-2.2,2.3-3.4,5.4-3.4,8.6C327.8,555.8,329.2,558.8,331.5,561L331.5,561z"/>
		<path class="st3" d="M318.9,616.7c5.9,3,28.6,0.9,28.6,0.9s-11.8-19.4-17.7-22.4c-2.8-1.4-6.2-1.7-9.2-0.7c-3,1-5.5,3.2-7,6
			c-1.4,2.9-1.7,6.2-0.7,9.2C313.8,612.8,316,615.3,318.9,616.7L318.9,616.7z"/>
		<path class="st3" d="M314,672.5c5.3,4,28,5.8,28,5.8s-8.3-21.1-13.6-25.1c-1.3-1-2.7-1.8-4.3-2.3c-1.6-0.5-3.2-0.6-4.8-0.4
			c-1.6,0.2-3.2,0.7-4.6,1.5s-2.6,1.9-3.6,3.2c-1,1.3-1.7,2.8-2,4.4c-0.4,1.6-0.4,3.2-0.1,4.8c0.3,1.6,0.9,3.1,1.8,4.5
			C311.6,670.5,312.8,671.6,314,672.5L314,672.5z"/>
		<path class="st11" d="M361,507.8c0,6.6-12,25.9-12,25.9s-12-19.3-12-25.9c0-3.2,1.3-6.3,3.5-8.5c2.3-2.3,5.3-3.5,8.5-3.5
			c3.2,0,6.3,1.3,8.5,3.5C359.8,501.5,361,504.6,361,507.8L361,507.8z"/>
		<path class="st11" d="M380.9,544.6c-3.6,5.6-24.2,15.2-24.2,15.2s0.4-22.7,4-28.3c0.9-1.3,2-2.5,3.3-3.4c1.3-0.9,2.8-1.5,4.3-1.9
			c1.5-0.3,3.1-0.4,4.7-0.1c1.6,0.3,3,0.9,4.4,1.7c1.3,0.9,2.5,2,3.4,3.3c0.9,1.3,1.5,2.8,1.9,4.3c0.3,1.5,0.4,3.1,0.1,4.7
			C382.4,541.7,381.8,543.2,380.9,544.6z"/>
		<path class="st11" d="M380.1,607.5c-5.9,3-28.6,0.9-28.6,0.9s11.8-19.4,17.7-22.4c1.4-0.8,3-1.2,4.6-1.4c1.6-0.1,3.2,0,4.7,0.5
			c1.5,0.5,2.9,1.3,4.2,2.3c1.2,1,2.2,2.3,2.9,3.7c0.7,1.4,1.1,3,1.3,4.6c0.1,1.6-0.1,3.2-0.6,4.7c-0.5,1.5-1.3,2.9-2.4,4.1
			C382.8,605.8,381.5,606.8,380.1,607.5z"/>
		<path class="st11" d="M368.7,654.9c-5.3,3.9-28,5.7-28,5.7s8.3-21.1,13.6-25.1c1.3-1,2.7-1.8,4.3-2.3c1.6-0.5,3.2-0.6,4.8-0.4
			c1.6,0.2,3.2,0.7,4.6,1.5c1.4,0.8,2.6,1.9,3.6,3.2c1,1.3,1.7,2.8,2,4.4c0.4,1.6,0.4,3.2,0.1,4.8c-0.3,1.6-0.9,3.1-1.8,4.5
			C371.1,652.8,370,653.9,368.7,654.9L368.7,654.9z"/>
		<path class="st11" d="M331.5,561c4.8,4.6,27,9.4,27,9.4s-5.4-22.1-10.2-26.7c-2.3-2.2-5.4-3.4-8.6-3.4c-3.2,0-6.2,1.4-8.5,3.6
			c-2.2,2.3-3.4,5.4-3.4,8.6C327.8,555.8,329.2,558.8,331.5,561L331.5,561z"/>
		<path class="st11" d="M318.9,616.7c5.9,3,28.6,0.9,28.6,0.9s-11.8-19.4-17.7-22.4c-2.8-1.4-6.2-1.7-9.2-0.7c-3,1-5.5,3.2-7,6
			c-1.4,2.9-1.7,6.2-0.7,9.2C313.8,612.8,316,615.3,318.9,616.7L318.9,616.7z"/>
		<path class="st11" d="M314,672.5c5.3,4,28,5.8,28,5.8s-8.3-21.1-13.6-25.1c-1.3-1-2.7-1.8-4.3-2.3c-1.6-0.5-3.2-0.6-4.8-0.4
			c-1.6,0.2-3.2,0.7-4.6,1.5s-2.6,1.9-3.6,3.2c-1,1.3-1.7,2.8-2,4.4c-0.4,1.6-0.4,3.2-0.1,4.8c0.3,1.6,0.9,3.1,1.8,4.5
			C311.6,670.5,312.8,671.6,314,672.5L314,672.5z"/>
		<path class="st9" d="M309.2,702.7c0,0,19.5-3.9,24.6-9c5.2-5.2,28.5-14.2,31.1-7.7c2.6,6.4,35,28.3,13,32.2
			c-22,3.9-51.9,5.2-58.4,2.6C313,718.1,309.2,702.7,309.2,702.7z"/>
		<path class="st10" d="M377.9,715.7c-22.1,3.9-51.9,5.2-58.4,2.6c-4.9-2-8.4-11.4-9.7-15.8l-0.6,0.1c0,0,3.9,15.5,10.4,18
			c6.5,2.6,36.3,1.3,58.4-2.6c6.4-1.1,8.2-3.7,7.5-7.1C384.8,713.2,382.6,714.9,377.9,715.7z"/>
		<path class="st1" d="M1323.4,84.9v220.3c0,36.5-45.1,54.1-69.5,27l-0.6-0.6c-7.9-8.8-18.7-19.6-29.6-14.9
			c-3.4,1.4-5.9,4.2-8.9,6.3c2.2,4.8,4,9.7,5.6,14.8c9.4,31.1,2.1,64.6-8,95.5c-10,30.9-22.8,61.5-24.5,93.9
			c-0.8,15.6,1,31.1,2.7,46.6c3.4,29.4,6.9,59.4,19.2,86.3c6.7,14.8,16.2,29.6,14.2,45.7c-53,2.4-105.9-4.4-156.6-19.9
			c35.1-35.3,35-91.4,32.7-141.1c-1.9-40-3.8-80.1-5.7-120.2c-0.5-11.7-1.2-23.9-6.6-34.3c-7.3-14.2-22.4-23.2-38-26.7
			c-15.6-3.6-31.8-2.6-47.8-1.6c-1.2-6.2,0-12.7,3.3-18.1c24.9,10.8,51.6,17.1,78.8,18.5c3.4,0.2,7.2,0.1,9.8-2.2
			c2.5-2.3,2.9-6.1,3.1-9.5c1-19.9-0.8-39.8-5.4-59.2c-0.9,0.2-1.7,0.4-2.6,0.7c-13.4,4-25.5,14-39.4,13c-19.5-1.5-31-23.3-49.3-30
			c-14.1-5.1-29.5-0.6-44.2,2.1c-14.7,2.7-32.2,2.5-41.8-8.9c-12.2-14.4-4.5-37.3-12.5-54.4c-11.2-24.4-45.3-24.9-72-21.6
			c10.7-16.1,26.6-28.1,45.1-33.9c-9.5-17-42.7-16.2-42.5-35.6c0.1-7.5,6.1-13.5,11.6-18.6l25-22.8l-44.3-16.7
			c-9.9-3.7-21-8.7-24.3-18.7c-3.2-9.9,2.6-20.5,9.9-27.9l0.2-0.2c5.8-5.7,12.7-10.3,20.2-13.4c7.5-3.1,15.6-4.6,23.8-4.6h383.6
			c22.6,0,44.3,9,60.3,25C1314.4,40.6,1323.4,62.2,1323.4,84.9L1323.4,84.9z"/>
		
			<linearGradient id="SVGID_3_" gradientUnits="userSpaceOnUse" x1="242.7816" y1="284.0919" x2="242.7816" y2="955.3053" gradientTransform="matrix(1 0 0 -1 324 1046)">
			<stop  offset="0" style="stop-color:#808080;stop-opacity:0.25"/>
			<stop  offset="0.54" style="stop-color:#808080;stop-opacity:0.12"/>
			<stop  offset="1" style="stop-color:#808080;stop-opacity:0.1"/>
		</linearGradient>
		<path class="st12" d="M454.3,759.3c0,0,26,7.2,38.6-2.4c12.6-9.5,18-6.4,18-6.4s29.9-1.7,32.4-8.7c2.5-7.1-11.5-32.8-11.5-32.8
			c-1-2.2-2.4-5.2-3.1-5.2l0.1-10.8l4.3-45.3c10-25.6,0.2-58.8,0.2-58.8l-1.8-8.2c-1-4.6-0.4-9.4,1.7-13.6l18.2-36.5
			c1-2.4,2.1-4.7,3.4-7c1.1-2.1,2.7-4.7,4.6-7.8c0.6-0.9,1.1-1.8,1.8-2.8c2.2-3.4,4.9-7.3,8.1-11.8c8-11.1,12.3-25,14.5-35.4l1,3.2
			h0.2h0.3l0.4,0.1h0.1l0.5,0.1h0.1h0.1l5.6,71.1c0.4,27.7,10.5,43.1,10.5,43.1l-1.4,61.2c1.9,14.8-2.3,34.4-4.2,42.2l-4.4,9.9
			c-1.7,0.9-3.2,2.1-4.4,3.7c-1.1,1.6-1.9,3.4-2.1,5.3c-0.9,7.3-8.6,23.1-8.6,23.1c-2.8,3.9-9.3,14.1-9.3,14.1s-3.2,9.8-1.2,13.4
			c1.9,3.7,17.7,3.3,17.7,3.3c18.1,4,31.9-5.8,31.1-12.4c-0.9-6.6,2.8-8.4,2.8-8.4c7.2-2.3,6.5-7.1,6.5-7.1
			c1.6-10-0.4-20.3-5.4-29.1l-1.1,2.6c-0.3-5.3,0.4-10.6,2.2-15.5c-0.2,0.2-0.4,0.3-0.7,0.5l-0.2,0.1h-0.1
			c1.1-10,11.6-28.5,11.6-28.5c19.3-33.8,12.3-79.7,12.3-79.7l-3-14.2l-0.2-5.4c-0.4-12.9,0.5-25.7,2.9-38.4
			c1-5.6,2.1-12.4,2.9-19.9c1.7-15.8,7.3-32.1,9.9-38.9l0.8-0.1h0.1l3.2-0.6h0.2c0,0,0.6-3.3,1.1-9c0.3-3.6,0.6-8.2,0.6-13.5
			c0.1-15.9-2.3-31.7-7.2-46.9l0.6-0.8c0,0,1.4-1.9,3.9-5.1c4.6-5.9,11.8-14.8,20.7-24.9c15.9-18.1,11.2-36.5,11.2-36.5
			s-11.5-42.1-16.6-67.4c-2.9-14.4-8.4-24.2-12.6-30c1-4,1.5-8.1,1.6-12.2c0.4-7.5,0.1-15.3-3.3-22.1c-3.4-6.7-10.6-12.1-18.1-11.2
			c-1.1,0.3-2.2,0.3-3.2,0c-0.9-0.4-1.6-1-2.1-1.9c-4.4-6-4.7-14.2-3.3-21.5c1.4-7.3,4.2-14.4,5.4-21.7c1.2-7.4,0.7-15.5-4-21.4
			c-5.5-6.8-15.1-8.8-22.3-13.9c-5-3.6-8.8-8.8-14.1-12c-5.3-3.2-10.2-2-16-0.8c-9.7,2-18.9,3-28,7.1c-9.3,4.2-17.6,10.2-24.4,17.8
			c-2.4,2.4-4.3,5.4-5.4,8.6c-2.3,7.5,2.2,15.6,1.2,23.4c-0.7,5.5-3.9,10.3-6.5,15.3c-2.6,4.9-4.5,10.8-2.5,16
			c3.2,8.1,13.6,9.8,21.2,14.1c1,0.5,1.9,1.2,2.5,2.2c1.9,3.3-2,6.7-4.4,9.5c-1.4,1.7-2.4,3.7-2.9,5.8c-3.1,1.3-5.9,3.3-8.1,5.9
			c-2.2,2.6-3.6,5.7-4.3,9c-2.6,11.5,1.4,26,4.9,35.5c-3.8,21.3,1.1,29.8,4.8,33c1.8,1.6,3.3,3.5,4.4,5.6c1.1,2.1,1.7,4.5,1.9,6.9
			v0.4c0.2,3.9,0.6,7.7,1.2,11.6c-0.1-0.9-0.2-1.9-0.3-2.3c-3,5.5-8.6,19.6-11.8,43.2c-0.7,5.1-1.6,10.1-2.9,15.1
			c-2.3,8.8-3.1,17.9-2.4,26.9l0.6,7.7c-0.6,0-1.1-0.2-1.5-0.5l4,7.3v12.3c0,5.6-1,11.1-3,16.3c-0.3,0.8-0.6,1.5-0.9,2.3
			c-1,2.1-1.5,4.4-1.3,6.7c-8.6,13.2-28.4,87.1-28.4,87.1c-10.7,24.2,0.9,39.9,0.9,39.9s5.6,67.5,6.7,71c1,3.5,3.3,44.6,3.3,44.6
			c0,1.1,0,2.2,0,3.3c-0.6-0.3-1.3-0.5-1.9-0.6c-9.4-0.5-11.9,14.3-11.9,14.3l-19.2,18.4c0,0-8.8-1.5-21.7,8.2
			C433.1,750.5,454.3,759.3,454.3,759.3z M646.1,369.3v-0.2l-0.5,0.3l-0.2,0.1h-0.1l-8.9-31.1c-2.4-8.4-2.6-17.2-0.7-25.7l6.8-30
			v-7.2l21.7,58C665.6,341.3,652.7,360.2,646.1,369.3z"/>
		<path class="st13" d="M655.6,463.5c0,0-8.8,21.3-11,41.8c-0.8,7.4-1.9,14.1-2.9,19.6c-2.3,12.5-3.2,25.2-2.8,37.9l0.2,5.3
			l2.9,14.1c0,0,6.9,45.3-12.1,78.7c0,0-11.2,20-11.5,29.5l-7.6,2.9l-15.3-4.3c0,0,7.4-26.5,5-45.1l1.4-60.4c0,0-10-15.2-10.3-42.5
			l-5.9-75L655.6,463.5z"/>
		<path class="st13" d="M585.7,452.9c0,0-1.9,29.3-16.4,49.4c-14.5,20.1-17.6,28.9-17.6,28.9l-17.8,36.1c-2.1,4.2-2.7,8.9-1.7,13.5
			l1.7,8.1c0,0,9.7,32.7-0.2,58l-4.6,48.9H502c0,0-2.3-40.6-3.3-44.1c-1-3.4-6.5-70.1-6.5-70.1s-11.4-15.5-0.9-39.4
			c0,0,23.8-89.6,30.1-88C527.8,455.8,585.7,452.9,585.7,452.9z"/>
		<g class="st14">
			<path class="st1" d="M531.2,588.9l-1.7-8.1c-1-4.6-0.4-9.3,1.7-13.5l17.8-36.1c0,0,3.1-8.8,17.6-28.9
				c13.9-19.3,16.2-47.2,16.3-49.3l2.8-0.1c0,0-1.9,29.3-16.4,49.4c-14.5,20.1-17.6,28.9-17.6,28.9l-17.8,36.1
				c-2.1,4.2-2.7,8.9-1.7,13.5l1.7,8.1c0,0,9.7,32.7-0.2,58l-4.6,48.9h-2.8l4.6-48.9C540.9,621.6,531.2,588.9,531.2,588.9z"/>
		</g>
		<path class="st1" d="M615.6,690.5c0.3-9.5,11.5-29.5,11.5-29.5c19-33.4,12.1-78.7,12.1-78.7l-2.9-14.1l-0.2-5.3
			c-0.4-12.7,0.5-25.4,2.8-37.9c1-5.5,2.1-12.2,2.9-19.6c2.1-19.7,10.4-40.3,11-41.8l2.8-0.1c0,0-8.8,21.3-11,41.8
			c-0.8,7.4-1.9,14.1-2.9,19.6c-2.3,12.5-3.2,25.2-2.8,37.9l0.2,5.3l2.9,14.1c0,0,6.9,45.3-12.1,78.7c0,0-11.2,20-11.5,29.5
			l-7.6,2.9l-1.6-0.4L615.6,690.5z"/>
		<path class="st15" d="M606.8,690.2c2.1,0.8,4.3,1.1,6.5,0.9c2.2-0.3,4.3-1.1,6.1-2.4c-2.5,7.3-2.9,15.2-1,22.7
			c3.1,12.4-28.9-10-28.9-10l6.9-15.6C596.4,685.7,598.9,690.7,606.8,690.2z"/>
		<path class="st1" d="M609.2,690.9c1.8,0.4,3.6,0.3,5.3-0.1c1.8-0.4,3.4-1.1,4.8-2.2c-2.5,7.3-2.9,15.2-1,22.7
			c3.1,12.4-28.9-10-28.9-10l6.9-15.6c0,0,2,3.8,7.8,4.4C605.8,690.3,607.6,690.6,609.2,690.9z"/>
		<path class="st13" d="M534.2,400.4h13.4v-75.9l-10-1.8L534.2,400.4z"/>
		<path class="st16" d="M534.2,400.4h13.4v-75.9l-10-1.8L534.2,400.4z"/>
		<path class="st17" d="M599.3,696c0,0,8.4-0.5,12.2,7.1l4.7,3.6l2.3-5.3c5,8.7,6.9,18.8,5.3,28.8c0,0,0.7,4.8-6.4,7.1
			c0,0-3.6,1.7-2.8,8.3c0.9,6.5-12.7,16.2-30.5,12.2c0,0-15.5,0.3-17.4-3.3c-1.9-3.6,1.2-13.3,1.2-13.3s6.4-10.1,9.3-13.8
			c0,0,7.6-15.6,8.4-22.8C586.6,697.3,594.8,692.1,599.3,696z"/>
		<path class="st15" d="M529.4,702.4l0.1-10.7c0,0-15.4,4.4-27.9-0.6c0,0,1,10.8-0.7,12.2c-1.7,1.5,5.8,15.3,5.8,15.3l8.4,8.8
			l14.4-5.3l3.9-12.3C533.5,709.9,530.5,702.4,529.4,702.4z"/>
		<path class="st1" d="M529.4,702.4l0.1-10.7c0,0-15.4,4.4-27.9-0.6c0,0,1,10.8-0.7,12.2c-1.7,1.5,5.8,15.3,5.8,15.3l8.4,8.8
			l14.4-5.3l3.9-12.3C533.5,709.9,530.5,702.4,529.4,702.4z"/>
		<path class="st17" d="M500.1,698.5c0,0,8.2,0.9,7.1,11.4c-1,10.4,0.4,0,0.4,0s8.7,3.5,11.8,8.4c3.1,4.9,8.7-4.4,9.1-7.1
			c0.4-2.7,3.9-3.8,3.9-3.8s13.6,25.4,11.3,32.4c-2.4,7-31.8,8.6-31.8,8.6s-5.3-3-17.7,6.4c-12.3,9.4-37.9,2.3-37.9,2.3
			s-20.8-8.7-8.2-18.2c12.7-9.5,21.3-8.1,21.3-8.1l18.9-18.2C488.4,712.6,490.8,698,500.1,698.5z"/>
		<path class="st18" d="M597.9,98.8c5.2,3.1,8.9,8.3,13.8,11.8c7,5.1,16.5,7,21.9,13.7c4.5,5.8,5.2,13.8,3.9,21.1
			c-1.2,7.3-4,14.2-5.3,21.5c-1.3,7.3-1.1,15.3,3.3,21.3c0.5,0.8,1.2,1.5,2.1,1.8c1,0.3,2.1,0.3,3.2,0c7.4-0.9,14.4,4.4,17.7,11
			c3.3,6.7,3.6,14.4,3.2,21.8c-0.3,6.1-1,12.3-3.6,17.8c-4.6,9.3-14,15.1-23.4,19.5c-6.1,2.9-12.3,5.4-18.7,7.5
			c-4.4,1.5-9,2.8-13.5,2c-7.8-1.3-13.3-8.4-20.7-11.2c-6.1-2.3-12.8-1.5-19.2-0.9c-5.5,0.5-11.8,0.5-15.6-3.5
			c-4.9-5.2-2.7-13.5-0.2-20.1c-2.6-0.2-5.2-1.1-7.3-2.6c-2.2-1.5-3.8-3.6-4.9-6c-1-2.4-1.4-5.1-1-7.7c0.4-2.6,1.4-5.1,3.1-7.1
			c2.4-2.9,6.1-6.2,4.3-9.4c-0.6-0.9-1.5-1.7-2.5-2.1c-7.4-4.2-17.7-5.9-20.8-13.9c-2-5.1-0.1-10.9,2.5-15.8s5.7-9.6,6.4-15.1
			c0.9-7.7-3.4-15.6-1.2-23.1c1.1-3.2,3-6.1,5.3-8.5c6.7-7.4,14.9-13.4,24-17.6c9-4.1,18-5,27.5-7C587.8,96.8,592.5,95.6,597.9,98.8
			z"/>
		<path class="st13" d="M547.5,213.6c0,0-21.8-1.1-25.9,17.5c-4.1,18.6,8.9,45.2,8.9,45.2L547.5,213.6z"/>
		<path class="st16" d="M547.5,213.6c0,0-21.8-1.1-25.9,17.5c-4.1,18.6,8.9,45.2,8.9,45.2L547.5,213.6z"/>
		<path class="st13" d="M533.6,268.9l8.3,6.5l38.6,1.7l24.1-16.5l24.5-42.1c-15-3.8-21-14.2-23.3-23.9c-1.4-6.5-1.6-13.3-0.5-19.9
			c0,0-39.3-20.3-34.4,11.4c0.7,3.9,0.8,7.9,0.4,11.8c-2.3,18.6-20.3,15.1-20.3,15.1l-6.9,10.7l-8,26.1L533.6,268.9z"/>
		<path class="st1" d="M570.8,186.3c0.7,3.9,0.8,7.9,0.4,11.8c5.5,2.5,11.7,3.6,17.7,3c6.1-0.6,11.9-2.7,16.9-6.2
			c-1.4-6.5-1.6-13.3-0.5-19.9C605.3,174.9,566,154.6,570.8,186.3z"/>
		<path class="st13" d="M585.7,199.8c19.2,0,34.8-15.6,34.8-34.8c0-19.2-15.6-34.8-34.8-34.8c-19.2,0-34.8,15.6-34.8,34.8
			C550.9,184.2,566.5,199.8,585.7,199.8z"/>
		<path class="st15" d="M561.1,262.3c0.8,0.1,1.7,0.1,2.5,0.2c4.5,0.5,23.6,1.5,34.5-11.5c12.1-14.5,28.3-32.4,29-33.2l16.5,5
			c0,0-13-4.6-21.7,19.6c-1.9,5.1-2.1,10.7-0.5,15.9c1.5,5.2,4.7,9.8,9.1,13c3.2,2.3,6.9,3.9,10.8,4.5c0,0,0,0,0,0c0,0,0,0,0,0v10.6
			l-6.7,29.6c-1.9,8.4-1.7,17.1,0.6,25.4l10.2,36.3c0,0,0,0,0,0.1c-1.5,1.1-65.2,44.3-107.8,14.5c0.2-1.3,5.4-43.9,1.8-64.7
			c-0.9-5.3-1.6-10.7-1.9-16.1c0-0.1,0-0.3,0-0.4c-0.4-4.8-2.6-9.2-6.2-12.3c-3.8-3.4-9-12.5-3.9-36.7c1.3-6,3.2-11.8,5.7-17.4
			l14.3-32.2c0,0,0,0,0,0c0,0,0,0,0,0l13.1,0.3v0.1c-1.1,1.4-16.4,20.5-18,32.7C540.7,257.3,538.7,260.9,561.1,262.3z"/>
		<path class="st13" d="M654.5,228.5c0,0,12.9,11,17.9,36c5,25,16.4,66.6,16.4,66.6s4.5,18.2-11,36.1
			c-15.6,17.9-25.9,31.9-25.9,31.9l-10.2,15.1c-1.7,2.6-4.4,4.4-7.4,5.2c-4.7,1.2-11.9,2.1-18.1-1.3c-2.3-1.3-4-3.3-4.9-5.8
			c-0.8-2.5-0.8-5.1,0.2-7.5l2.2-5.3c0,0-21.1,13.3-23,6c-1.8-7.4,24.6-14.7,24.6-14.7s21.8-3.7,26.1-14c0,0,23.4-30.1,21.6-40.4
			l-22.7-60.6c0,0-28.1-3.7-18.5-35.5C631.6,208.6,654.5,228.5,654.5,228.5z"/>
		<path class="st17" d="M519.3,457.2c0,0,51.7,10.3,63.8,9l1.3,4.4c0,0,19.6,4.4,63.9-2.6c2.9-0.5,5.9-1,9-1.5l1-0.2
			c0,0,0.6-3.3,1.1-8.9c1.1-12.7,1.4-37.3-7.5-62.5l-7.5-23c0,0-46.1,27.6-76.6,25.1c-2.7-0.2-5.4-0.4-8.2-0.5
			c-6.3-0.2-15.9,0-22.3-5l-13.2,2.3v37.7c0,5.5-1,11-3,16.1c-0.3,0.8-0.6,1.5-0.9,2.3C519.4,452.1,518.6,454.8,519.3,457.2z"/>
		<path class="st1" d="M584.4,458.9v11.7c0,0,22.6,5,74-4.4c0,0,0.6-3.3,1.1-8.9C643.7,459.8,600.2,465.9,584.4,458.9z"/>
		<path class="st1" d="M519.3,457.2c0,0,51.7,10.3,63.8,9l1.3,4.4v-11.7c-5.9,2.4-47.9-7.7-63.1-11.5c-0.3,0.8-0.6,1.5-0.9,2.3
			C519.4,452.1,518.6,454.8,519.3,457.2z"/>
		<path class="st17" d="M644.6,444.1l3.8,23.8c2.9-0.5,5.9-1,9-1.5c-1.1-6.9-3.8-22.7-3.1-25.4l-4.8-4.1L644.6,444.1z"/>
		<path class="st1" d="M644.6,444.1l3.8,23.8c2.9-0.5,5.9-1,9-1.5c-1.1-6.9-3.8-22.7-3.1-25.4l-4.8-4.1L644.6,444.1z"/>
		<g class="st19">
			<path class="st16" d="M565.2,396.9c-2.7-0.2-5.4-0.4-8.2-0.5c-6.1-0.2-15.4,0-21.7-4.7l2.2-0.4c6.3,5,16,4.8,22.3,5
				c2.7,0.1,5.4,0.3,8.1,0.5c0.9,0.1,1.8,0.1,2.7,0.1C568.9,397.1,567,397,565.2,396.9L565.2,396.9z"/>
			<path class="st16" d="M645.6,467.9c2.9-0.5,5.9-1,9-1.5l1-0.2c0,0,0.6-3.3,1.1-8.9c1.1-12.7,1.4-37.3-7.5-62.5l-7-21.6
				c1.5-0.8,2.3-1.3,2.3-1.3l7.5,23c8.9,25.2,8.6,49.8,7.5,62.5c-0.5,5.6-1.1,8.9-1.1,8.9l-1,0.2c-3.1,0.6-6.1,1.1-9,1.5
				c-20.7,3.3-36,4.1-46.5,4C616.5,471.7,631.1,470.3,645.6,467.9L645.6,467.9z"/>
			<path class="st16" d="M580.4,466.2v0.1h-1.5C579.5,466.3,579.9,466.2,580.4,466.2z"/>
		</g>
		<path class="st15" d="M651,448.6c1.1,0,1.9-1.8,1.9-4c0-2.2-0.9-4-1.9-4c-1.1,0-1.9,1.8-1.9,4C649,446.8,649.9,448.6,651,448.6z"
			/>
		<path class="st13" d="M526.6,363.3c3.1-23.4,8.7-37.3,11.6-42.7c0.1,0.8,0.4,3.1,0.5,3.9c0.6,3.4,0.1,7.7,0.3,12.1l-2.9,53
			l3.9,16.5c3.7,13.1-9.9,2.7-9.9,2.7c-2.8,6.2-8,5.5-8,5.5l-0.7-9.5c-0.7-8.9,0.1-17.9,2.4-26.6C525,373.3,525.9,368.3,526.6,363.3
			L526.6,363.3z"/>
		<path class="st16" d="M526.6,363.3c3.1-23.4,8.7-37.3,11.6-42.7c0.1,0.8,0.4,3.1,0.5,3.9c0.6,3.4,0.1,7.7,0.3,12.1l-2.9,53
			l3.9,16.5c3.7,13.1-9.9,2.7-9.9,2.7c-2.8,6.2-8,5.5-8,5.5l-0.7-9.5c-0.7-8.9,0.1-17.9,2.4-26.6C525,373.3,525.9,368.3,526.6,363.3
			L526.6,363.3z"/>
		<path class="st13" d="M657.4,391.8c-2.5,3.2-3.8,5-3.8,5L643.3,412c-1.7,2.6-4.4,4.4-7.4,5.2c-4.7,1.2-11.9,2.1-18.1-1.3
			c-2.3-1.3-4-3.3-4.9-5.8c-0.8-2.5-0.8-5.1,0.3-7.5l2.3-5.3c0,0-21.1,13.3-23,6c-1.8-7.3,24.6-14.7,24.6-14.7s21.8-3.7,26.1-14
			c0,0,1.9-2.5,4.5-6.2"/>
		<path class="st17" d="M644.6,417.2c0,0-25-2.4-32.9-16.7l-3.6,11.8c0,0,26.1,18.1,32.2,15.8L644.6,417.2z"/>
		<path class="st1" d="M644.6,417.2c0,0-25-2.4-32.9-16.7l-3.6,11.8c0,0,26.1,18.1,32.2,15.8L644.6,417.2z"/>
		<path class="st17" d="M530.8,410.5c0,0-8.7,3.1-10.5,1.4l3.9,7.2l7.4-5.7L530.8,410.5z"/>
		<path class="st1" d="M530.8,410.5c0,0-8.7,3.1-10.5,1.4l3.9,7.2l7.4-5.7L530.8,410.5z"/>
		<path class="st1" d="M584.4,458.8v-15.1l-3.6,15.5L584.4,458.8z"/>
		<path class="st1" d="M619.9,146.7c-2.1,3-5.8,4.5-9.4,4.9c-3.6,0.5-7.3,0.1-10.9,0c-5.7-0.1-11.8,0.8-16.4,4.1
			c-3,2.1-5.2,5.1-7.5,8c-7,8.6-16.8,16.7-27.9,15.8c-1,0-1.9-0.2-2.8-0.6c-0.9-0.4-1.7-0.9-2.4-1.6c-0.9-1.4-1.4-3-1.3-4.7
			c-0.5-7.1-0.3-14.2,0.7-21.3c0.4-4.4,1.5-8.6,3.2-12.7c2-4.1,4.6-7.8,7.7-11c3.8-4.4,8.4-8.1,13.5-10.8c5.2-2.6,11.3-3.7,16.9-2.2
			c6.6,1.8,11.8,7,18.2,9.7C608.6,127.3,627.8,135.5,619.9,146.7z"/>
		<path class="st18" d="M619.9,145.3c-2.1,3-5.8,4.5-9.4,4.9c-3.6,0.5-7.3,0.1-10.9,0c-5.7-0.1-11.8,0.8-16.4,4.1
			c-3,2.1-5.2,5.1-7.5,8c-7,8.6-16.8,16.7-27.9,15.8c-1,0-1.9-0.2-2.8-0.6c-0.9-0.4-1.7-0.9-2.4-1.6c-0.9-1.4-1.4-3-1.3-4.7
			c-0.5-7.1-0.2-14.2,0.7-21.3c0.4-4.4,1.5-8.6,3.2-12.7c2-4.1,4.6-7.8,7.7-11c3.8-4.4,8.4-8.1,13.5-10.8c5.2-2.6,11.3-3.7,16.9-2.2
			c6.6,1.8,11.8,7,18.2,9.7C608.6,125.9,627.8,134.1,619.9,145.3z"/>
		<path class="st13" d="M537.6,391.3l-0.1,4.2l-0.9-4L537.6,391.3z"/>
		<path class="st16" d="M537.6,391.3l-0.1,4.2l-0.9-4L537.6,391.3z"/>
		<g class="st19">
			<path class="st16" d="M625.5,238.1c-9.7,31.8,18.5,35.5,18.5,35.5l22.6,60.6c1.8,10.3-21.6,40.4-21.6,40.4
				c-1.6,3.9-5.7,6.8-10.2,8.9c2.6-1.6,4.7-3.9,6-6.6c0,0,23.4-30.1,21.6-40.4L639.9,276c0,0-28.2-3.7-18.5-35.5
				c3.2-10.6,8-15.4,12.8-17.2C630.8,226,627.8,230.6,625.5,238.1z"/>
		</g>
		<g class="st14">
			<path class="st1" d="M625.9,267c1.3,1.6,2.8,3.1,4.6,4.3c3.2,2.3,6.9,3.9,10.8,4.5v1.1c-3.5-0.8-6.8-2.2-9.8-4.3
				C629.3,271.1,627.5,269.2,625.9,267z"/>
			<path class="st1" d="M538.5,312.5c0,0.1,0,0.3,0,0.4c0.3,5.4,1,10.8,1.9,16.1c3.4,19.7-1.1,58.7-1.7,64.1
				c-0.4-0.2-0.7-0.5-1.1-0.7c0.2-1.3,5.4-43.9,1.8-64.7c-0.9-5.3-1.6-10.7-1.9-16.1c0-0.1,0-0.3,0-0.4c-0.2-3.1-1.3-6.1-3.1-8.7
				C536.8,305.2,538.2,308.8,538.5,312.5L538.5,312.5z"/>
			<path class="st1" d="M559.5,214.1l-11.2-0.2c0,0,0,0,0,0c0,0,0,0,0,0L534,246.1c-2.5,5.6-4.4,11.4-5.7,17.4
				c-4.1,19.5-1.5,29.2,1.6,34c-3.6-4.2-7.3-13.8-2.7-35.4c1.3-6,3.2-11.8,5.7-17.4l14.3-32.2l13.1,0.3v0.1
				C560.4,213,560,213.4,559.5,214.1z"/>
			<path class="st1" d="M639.4,222.7l-11.1-3.4c-0.7,0.7-16.8,18.6-29,33.2c-10.9,13-29.9,11.9-34.5,11.5c-0.8-0.1-1.7-0.2-2.5-0.2
				c-12.5-0.8-17.4-2.3-19-5.4c2.3,2.3,7.5,3.4,18,4c0.8,0.1,1.7,0.1,2.5,0.2c4.5,0.5,23.6,1.5,34.5-11.5
				c12.1-14.5,28.3-32.4,29-33.2l16.3,4.9C642.2,222.5,640.8,222.4,639.4,222.7z"/>
		</g>
		<path class="st1" d="M507.1,715.1c0,0-15.7,4.3-18.8-2.5L507.1,715.1z"/>
		<path class="st1" d="M607,711.9c0,0-18.3,4.7-22.5-2.6L607,711.9z"/>
		
			<linearGradient id="SVGID_4_" gradientUnits="userSpaceOnUse" x1="448.823" y1="-111731.5156" x2="448.823" y2="-87492.0781" gradientTransform="matrix(1 0 0 -1 324 1046)">
			<stop  offset="0" style="stop-color:#808080;stop-opacity:0.25"/>
			<stop  offset="0.54" style="stop-color:#808080;stop-opacity:0.12"/>
			<stop  offset="1" style="stop-color:#808080;stop-opacity:0.1"/>
		</linearGradient>
		<path class="st20" d="M839.1,631.6c0,0-2.3-9.1-4.3-18.1c-0.4-5.6-1.4-12.9-1.8-15.9v-0.4c0-1.2-0.5-2.4-1.3-3.3
			c1.1-3.3,5.3-15.7,4.5-19.3c-0.9-4.1-4.1-14.2-7.8-17.6c-1.2-1.8-2.9-3.2-5-3.9c-1.8-0.7-3.7-0.9-5.6-0.8
			c-1.9,0.2-3.8,0.7-5.4,1.7l-19.2,10.8c-7.7-1.1-13.9-2-13.9-2s-4.8-0.6-10.7-1.1c-1.9-4.4-8-17.7-14.3-19.9
			c-6.8-2.3-14.8,0.8-16.5,1.5h-0.1l-0.2,0.1c-12.5,5.8-11.1,30.3-10.6,35.6c-2.3,2.9-4.8,5.7-7.5,8.4c-4.3,3.8-5.6,13.6-1.6,15.7
			c1.9,1,4.5,2.1,6.9,3.1c-10.8,23-29.1,68.3-12.7,81.1c22.3,17.5,64.1,23.3,78.4,17.5c0.4,0.1,0.8,0,1.1-0.1
			c0,0,23.2-5.5,28.7-11.7c4.1-5.1,6.9-11.1,8.1-17.5c5.7-5,9.5-11.7,10.9-19.1C842,642,839.1,631.6,839.1,631.6z M824.6,581.9
			l0.6-2.8l0.9,0.5c-0.2,0.8-0.3,1.5-0.5,2.4l-0.9,5.3L824.6,581.9z M820.2,559c1,0.7,7.5,5.5,6.2,18c-0.1-0.5-0.2-1-0.4-1.4
			c-0.3-1.8-1.6-4.2-6-5.7c-3.8-1.1-7.7-2-11.6-2.6C811.8,563.9,815.8,561,820.2,559L820.2,559z M755,560.3c-5-0.4-9-0.5-9.5-0.2
			h-0.1c-0.6-0.1-1.3,0-1.9,0.2c-2,0.5-3.8,1.3-5.4,2.5c2.3-12.7,8.9-13.8,10.4-13.9C751.3,552.4,753.5,556.2,755,560.3L755,560.3z
			 M827.2,661.2c-0.7-10.4-1.3-26.6-1.7-36.1l0.6-0.1c0.7-0.1,1.3-0.2,1.9-0.4c0.6,6.1,1.8,13.4,3.7,18.1
			C834.3,648.9,830.4,656.5,827.2,661.2z"/>
		<path class="st21" d="M823,576.3l-13-4l-14,5l-1,8.8l6.9,4.5l10.9-0.4l9.7-4.5l1.6-8.3L823,576.3z"/>
		<path class="st10" d="M823,576.3l-13-4l-14,5l-1,8.8l6.9,4.5l10.9-0.4l9.7-4.5l1.6-8.3L823,576.3z"/>
		<path class="st22" d="M728.1,580.6c0,0-3.5-30.4,10.5-36.5c0,0,7.5,0.4,10.8,5.8c0,0-10.2-0.6-11.1,20.7L728.1,580.6z"/>
		<path class="st1" d="M728.1,580.6c0,0-3.5-30.4,10.5-36.5c0,0,7.5,0.4,10.8,5.8c0,0-10.2-0.6-11.1,20.7L728.1,580.6z"/>
		<path class="st21" d="M735.7,569.7c0,0-10.8,14.4-15,18.2c-4.2,3.8-5.5,13.5-1.6,15.6c3.9,2,11.4,4.9,11.4,4.9L735.7,569.7z"/>
		<path class="st16" d="M735.7,569.7c0,0-10.8,14.4-15,18.2c-4.2,3.8-5.5,13.5-1.6,15.6c3.9,2,11.4,4.9,11.4,4.9L735.7,569.7z"/>
		<path class="st22" d="M769.2,563.7c0,0-7.1-18.6-14.5-21.1c-7.4-2.5-16.4,1.6-16.4,1.6s10.9-1.1,17.6,18L769.2,563.7z"/>
		<path class="st22" d="M829.8,595.1c0,0,5.5-15.8,4.6-20c-0.9-4.1-4-14.1-7.6-17.4c-3.7-3.3-8.1,1.9-8.1,1.9s9.4,5.7,5.3,22.9
			l-1.2,7.6L829.8,595.1z"/>
		<path class="st1" d="M829.8,595.1c0,0,5.5-15.8,4.6-20c-0.9-4.1-4-14.1-7.6-17.4c-3.7-3.3-8.1,1.9-8.1,1.9s9.4,5.7,5.3,22.9
			l-1.2,7.6L829.8,595.1z"/>
		<path class="st22" d="M789.8,567.1l21.5-12.3c1.6-0.9,3.4-1.5,5.3-1.7c1.9-0.2,3.7,0.1,5.5,0.8c2,0.7,3.7,2.1,4.8,3.9
			c0,0-10.4-0.6-21.9,13L789.8,567.1z"/>
		<path class="st22" d="M825.8,613.8c0,0,0.6,19.6,4.4,29s-7.7,22.7-7.7,22.7l2.1,11.4c0,0,9.9-6.3,12.7-20.5
			c2.8-14.2,0-24.6,0-24.6s-8-31.9-6.8-35.3C831.6,592.9,825.8,613.8,825.8,613.8z"/>
		<path class="st1" d="M825.8,613.8c0,0,0.6,19.6,4.4,29s-7.7,22.7-7.7,22.7l2.1,11.4c0,0,9.9-6.3,12.7-20.5c2.8-14.2,0-24.6,0-24.6
			s-8-31.9-6.8-35.3C831.6,592.9,825.8,613.8,825.8,613.8z"/>
		<path class="st21" d="M823.1,579.4c0,0,1.7,10-18.6,5.6l-13.6,119.1c0,0,22.6-5.5,27.9-11.6c5.3-6.1,9.2-17.9,8-22.1
			c-1.2-4.2-2.8-52.6-2.8-52.6L823.1,579.4z"/>
		<path class="st21" d="M732.5,592.9c0,0-40.7,76.7-19,94c21.7,17.3,62.3,23.1,76.3,17.3c0,0,6.5,1.7,5.5-18.4
			c-1-20.2,7.5-76.4,7.5-76.4L732.5,592.9z"/>
		<path class="st22" d="M733.8,596.3c0,0-38.2,72-17.9,88.3c20.3,16.3,58.6,21.7,71.7,16.3c0,0,6.1,1.6,5.2-17.3
			c-0.9-19,7-71.8,7-71.8L733.8,596.3z"/>
		<path class="st1" d="M822.2,626c-1.6,1.1-10.5-1.6-10.5-1.6c-9.7-0.7-6.2-17.3-4.5-24c0.4-1.6,0.8-2.7,0.8-2.7
			c4.5,5.8,12.6,3.3,12.6,3.3s0.2,1.9,0.6,4.5C822,612.6,823.4,625.2,822.2,626z"/>
		<path class="st22" d="M822.5,625.5c-1.6,1.1-10.5-1.6-10.5-1.6c-9.7-0.7-6.2-17.3-4.5-24c0.4-1.6,0.8-2.7,0.8-2.7
			c4.5,5.8,12.6,3.3,12.6,3.3s0.2,1.9,0.6,4.5C822.3,612.1,823.6,624.6,822.5,625.5z"/>
		<path class="st16" d="M822.5,625.9c-1.6,1.1-10.5-1.6-10.5-1.6c-9.7-0.7-6.2-17.3-4.5-24c0.4-1.6,0.8-2.7,0.8-2.7
			c4.5,5.8,12.6,3.3,12.6,3.3s0.2,1.9,0.6,4.5C822.3,612.5,823.6,625,822.5,625.9z"/>
		<path class="st1" d="M821.5,605.1c-4.4-0.6-11.2-3.8-14-5.2c0.4-1.6,0.8-2.7,0.8-2.7c4.5,5.8,12.6,3.3,12.6,3.3
			S821.2,602.4,821.5,605.1z"/>
		<path class="st22" d="M817.2,599.8c0,0-11,28.6,7.5,25.3c0,0,8.7-0.9,8.6-7.5c0-6.6-2.2-21.1-2.2-21.1L817.2,599.8z"/>
		<path class="st1" d="M809,592.7c0,0-5.6,23.2,12.3,14.6c17.9-8.6,6.4-14.6,6.4-14.6l-8.6-5.6L809,592.7z"/>
		<path class="st21" d="M809,592.4c0,0-5.6,23.2,12.3,14.6c17.9-8.6,6.4-14.6,6.4-14.6l-8.6-5.6L809,592.4z"/>
		<path class="st1" d="M812.4,589.2c0,0-5.1,1.4-2.5,6.4c1.2,2.3,1.8,4.9,1.6,7.4c-0.1,0.8,0.2,1.7,0.7,2.3c0.5,0.7,1.3,1.1,2.1,1.3
			c1.8,0.3,4.5-0.1,7.8-3c0,0,6.6-2.5,6.1-5.7c-0.5-3.2-11.4-10.4-11.4-10.4L812.4,589.2z"/>
		<path class="st22" d="M812.4,588.9c0,0-5.1,1.4-2.5,6.4c1.2,2.3,1.8,4.9,1.6,7.4c-0.1,0.8,0.2,1.7,0.7,2.3
			c0.5,0.7,1.3,1.1,2.1,1.3c1.8,0.3,4.5-0.1,7.8-3c0,0,6.6-2.5,6.1-5.7c-0.5-3.2-11.4-10.4-11.4-10.4L812.4,588.9z"/>
		<path class="st1" d="M819.3,600.5c1.9,0,3.4-1.5,3.4-3.4c0-1.9-1.5-3.4-3.4-3.4c-1.9,0-3.4,1.5-3.4,3.4
			C815.9,599,817.4,600.5,819.3,600.5z"/>
		<path class="st21" d="M819.3,600.2c1.9,0,3.4-1.5,3.4-3.4c0-1.9-1.5-3.4-3.4-3.4c-1.9,0-3.4,1.5-3.4,3.4
			C815.9,598.7,817.4,600.2,819.3,600.2z"/>
		<path class="st1" d="M778,564.4c0,0-32.1-4-33.8-2.8c0,0-17.1,2.9-17.1,34.7c0,0-0.4,18.3,34.8,27.1c0,0,28.2,2.5,37.4-8.7
			s4.6-30,4.6-30s3.7-14.4,20.7-4.4c0,0,1.8-5.7-5.9-8.4C811.2,569.2,778,564.4,778,564.4z"/>
		<path class="st21" d="M778,563.9c0,0-32.1-4-33.8-2.8c0,0-17.1,2.9-17.1,34.7c0,0-0.4,18.3,34.8,27.1c0,0,28.2,2.5,37.4-8.7
			s4.6-30,4.6-30s3.7-14.4,20.7-4.4c0,0,1.8-5.7-5.9-8.4C811.2,568.6,778,563.9,778,563.9z"/>
		<path class="st1" d="M779,564c0,0-31.2-3.7-32.8-2.6c0,0-16.6,2.7-16.6,32.7c0,0-0.3,17.2,33.8,25.5c0,0,27.4,2.3,36.4-8.2
			c8.9-10.5,4.5-28.2,4.5-28.2s3.6-13.5,20.1-4.2c0,0,1.8-5.3-5.7-8C811.4,568.4,779,564,779,564z"/>
		<path class="st22" d="M779,563.7c0,0-31.2-3.7-32.8-2.6c0,0-16.6,2.7-16.6,32.7c0,0-0.3,17.2,33.8,25.5c0,0,27.4,2.3,36.4-8.2
			c8.9-10.5,4.5-28.2,4.5-28.2s3.6-13.5,20.1-4.2c0,0,1.8-5.3-5.7-8C811.4,568.1,779,563.7,779,563.7z"/>
		<path class="st21" d="M763.3,612.9c0,0-8.5-3.9-8.9,3.4c0,0-2.9,7.3-3,8.2c-0.1,0.9,0.4,8.3,7.1,8.1c1.8,0,3.6-0.5,5.2-1.5
			c1.6-1,2.9-2.3,3.7-4c0,0,1.4-8,3.4-9.8c2-1.7-1.4-3.4-2.7-3.4C766.4,613.7,764.9,613.4,763.3,612.9L763.3,612.9z"/>
		<path class="st1" d="M762.2,611.8c0,0-8.5-3.9-8.9,3.4c0,0-2.9,7.3-3,8.2c-0.1,0.9,0.4,8.3,7.1,8.1c1.8,0,3.6-0.5,5.2-1.5
			c1.6-1,2.9-2.3,3.7-4c0,0,1.4-8.1,3.4-9.8c2-1.7-1.4-3.4-2.7-3.4C765.3,612.6,763.7,612.2,762.2,611.8L762.2,611.8z"/>
		<path class="st22" d="M762.5,611.5c0,0-8.5-3.9-8.9,3.4c0,0-2.9,7.3-3,8.2c-0.1,0.9,0.4,8.4,7.1,8.1c1.8,0,3.6-0.6,5.2-1.5
			c1.6-1,2.9-2.3,3.7-4c0,0,1.4-8,3.4-9.8c2-1.7-1.4-3.4-2.7-3.4C765.6,612.3,764,612,762.5,611.5L762.5,611.5z"/>
		<path class="st1" d="M758.2,628.8c1.7,0,3.1-1.4,3.1-3.1c0-1.7-1.4-3.1-3.1-3.1c-1.7,0-3.1,1.4-3.1,3.1
			C755.1,627.5,756.5,628.8,758.2,628.8z"/>
		<path class="st21" d="M758.2,628.6c1.7,0,3.1-1.4,3.1-3.1s-1.4-3.1-3.1-3.1c-1.7,0-3.1,1.4-3.1,3.1S756.5,628.6,758.2,628.6z"/>
		<path class="st21" d="M787,642.3c0,0-33.5-3.9-56.8-15.9c0,0-18.4,46.4-3.7,53c14.7,6.5,45.2,16.9,53.8,13.3c0,0,5.1,0.8,3.4-16.1
			C781.9,659.7,787,642.3,787,642.3z"/>
		<path class="st1" d="M785,645.6c0,0-33.5-3.7-56.8-15c0,0-18.4,43.7-3.8,49.8c14.7,6.1,45.2,15.9,53.8,12.5c0,0,5.1,0.8,3.4-15.1
			C779.9,661.9,785,645.6,785,645.6z"/>
		<path class="st22" d="M785.6,645.3c0,0-33.5-3.7-56.8-15c0,0-18.4,43.7-3.7,49.8c14.7,6.1,45.2,15.9,53.8,12.5
			c0,0,5.1,0.8,3.4-15.1C780.5,661.6,785.6,645.3,785.6,645.3z"/>
		<g class="st14">
			<path class="st1" d="M818.8,570.5c-7.5-2.6-39.8-7.1-39.8-7.1s-31.2-3.8-32.8-2.6c0,0-8.1,1.3-12.9,12.3
				c4.9-9.9,12.4-11.1,12.4-11.1c1.6-1.1,32.8,2.6,32.8,2.6s32.3,4.5,39.8,7.1c5,1.7,5.9,4.7,5.9,6.5l0.4,0.2
				C824.5,578.4,826.3,573.1,818.8,570.5z"/>
			<path class="st1" d="M804.7,581.8c-0.4,0.6-0.6,1.3-0.9,2c0,0,3.2,12.6-1.3,22.9c5.3-10.5,1.8-24.2,1.8-24.2
				S804.5,582.3,804.7,581.8z"/>
		</g>
	</g>
</g>
</svg>
