<?xml version="1.0" encoding="utf-8"?>
<!-- Generator: Adobe Illustrator 24.0.1, SVG Export Plug-In . SVG Version: 6.00 Build 0)  -->
<svg version="1.1" id="Capa_1" xmlns="http://www.w3.org/2000/svg" xmlns:xlink="http://www.w3.org/1999/xlink" x="0px" y="0px"
	 viewBox="0 0 512 512" style="enable-background:new 0 0 512 512;" xml:space="preserve">
<style type="text/css">
	.st0{fill:#E36414;}
</style>
<g>
	<g>
		<path class="st0" d="M192,0C86.1,0,0,86.1,0,192c0,133.1,173.3,307.9,180.7,315.3c3.1,3.1,7.2,4.7,11.3,4.7s8.2-1.6,11.3-4.7
			c2.2-2.2,19.1-19.4,41.7-45.5c-13-23.1-21-49.4-21-77.8c0-87.2,69.8-157.8,156.6-159.6c2-11,3.4-21.8,3.4-32.4
			C384,86.1,297.9,0,192,0z M192,288c-52.9,0-96-43.1-96-96s43.1-96,96-96s96,43.1,96,96S244.9,288,192,288z"/>
	</g>
</g>
<g>
	<g>
		<path class="st0" d="M384,256c-70.7,0-128,57.3-128,128s57.3,128,128,128s128-57.3,128-128S454.7,256,384,256z M443.3,363.3
			l-64,64c-3.1,3.1-7.2,4.7-11.3,4.7s-8.2-1.6-11.3-4.7l-32-32c-6.2-6.2-6.2-16.4,0-22.6s16.4-6.2,22.6,0l20.7,20.7l52.7-52.7
			c6.2-6.2,16.4-6.2,22.6,0S449.6,357.1,443.3,363.3z"/>
	</g>
</g>
</svg>
