<?xml version="1.0" encoding="utf-8"?>
<!-- Generator: Adobe Illustrator 24.0.1, SVG Export Plug-In . SVG Version: 6.00 Build 0)  -->
<svg version="1.1" id="Layer_1" xmlns="http://www.w3.org/2000/svg" xmlns:xlink="http://www.w3.org/1999/xlink" x="0px" y="0px"
	 viewBox="0 0 511 511" style="enable-background:new 0 0 511 511;" xml:space="preserve">
<style type="text/css">
	.st0{fill:#3D3D3D;}
	.st1{fill:#FB8B24;}
</style>
<rect class="st0" width="511" height="511"/>
<path class="st1" d="M426.2,298.1c-7.9-20.1-20.3-37.8-32.3-55.1c-6.9-10-14.1-20.2-20.3-30.8c-5.3-9-11.4-21.1-12-33.7
	c-0.6-12.2,3.9-24,8.6-36.4c3.3-8.7,6.7-17.6,8.5-27.1c5.2-28.7-6.7-60-30.8-81.9c-16.6-15-38.1-25.4-62.2-30.2
	c-23.6-4.7-47.5-3.5-69.1,3.4c-13.5,4.3-26.1,11.4-36.3,20.6c-21.9,19.5-34.5,48.6-33.6,78c0.2,8.6,1.6,17,2.9,25.3
	c2,12.9,4,25.3,1.9,37.2c-2.8,16.1-12.7,30.4-22.2,44.3c-1.1,1.6-2.2,3.2-3.3,4.8c-26.9,39.7-42.7,76.3-48.2,111.9
	c-6.9,44.5,3.2,87.5,27.6,118.1c14.9,18.6,36.1,33.8,63.1,45.6c28.9,12.6,59.6,19,89.4,19c14.9,0,29.7-1.6,44.1-4.8
	c46.2-10.6,86.2-38.2,110.1-76C437,390.6,442.5,339.8,426.2,298.1z M364.9,217.3c4.7,8,9.8,15.6,15,23.3c-0.1,0.1-0.1,0.1-0.2,0.2
	c-6.8,8-15.3,14.5-24.8,18.9c-9.9,4.6-20.8,7-30.2,8.7c-13.7,2.5-29.8,4.6-44.9,0.9c-0.1-6.7-3.2-13.3-8.1-17.9
	c7-4,12.8-10.2,16.4-17.7c2.1,3.3,4.6,6.2,7.5,8.6c7.4,6.2,17.2,8.9,26.1,7.3c7-1.3,14.1-5.5,20.1-12c9.2-9.9,14.5-22.9,14.8-36.2
	C359.2,207.3,362.2,212.7,364.9,217.3z M348.5,397.6c-0.2,1.5-0.5,3.1-0.7,4.7c-0.7,0-1.4,0.2-2,0.6c-18.2,10-39.5,13.5-55.9,15.5
	c-37.7,4.5-75.8,3.5-113.3-2.8c-11.2-1.9-22.8-4.5-32.4-10.1c-0.1-0.1-0.2-0.1-0.4-0.2c-6.2-42.5,0.9-87.8,20.6-129.4
	c6.2,2,12.5,3.5,18.9,4.5c6,0.8,12,1.2,17.9,1.2c6.5,0,12.9-0.4,19.3-0.9c-6.1,4.1-11.3,10-14.8,16.9c-4.8,9.5-6.8,21.1-5.6,33.6
	c0.4,3.5,0.9,7,1.5,10.5c0.8,5.3,1.8,10.3,1.6,15.3c-0.1,6.6-2.3,14.9-8.6,18.6c-1.8,1.1-2.8,3.1-2.5,5.1c0.4,2,1.9,3.6,3.9,4.1
	c2.8,0.6,5.6,0.9,8.5,0.9c10.8,0,22-4.2,31.4-12.1c6.9-5.8,12.8-13.2,18.1-22.9c3.6,5.1,7.5,10.2,12.1,14.8
	c6.6,6.6,13.6,10.8,21,12.8c3.9,1.1,7.8,1.4,11.6,1.4c4.8,0,9.5-0.6,14.1-1.1c3.3-0.4,6.3-0.7,9.5-0.9c2-0.1,3.8-1.4,4.5-3.3
	s0.2-4-1.2-5.3c-8.1-7.9-13.3-18.4-14.7-29.6c-0.7-5.8-0.5-11.5-0.2-17.7c0.1-4,0.4-8.2,0.2-12.3c-0.1-4-0.5-9.3-2.6-14.5
	s-5.8-9.9-10.6-13.4c10,0,19.9-1.4,28.7-3.1c0.7-0.1,1.3-0.2,2-0.4C342.3,316.1,354.1,357,348.5,397.6z M159,190.7
	c6.5,4.7,13.4,8,19.2,10.6c13,5.8,26.8,10,41,12.8c-2.6,4.5-6.3,8.9-11.2,13c-5.6,4.9-10.9,7.8-15.9,8.7c-4.2,0.8-8.8,0.4-13.4-1.3
	c-11.2-4-19.6-14.6-20.9-26.4C157,202.3,158.1,196.1,159,190.7z M346.8,199.3c0.1,11.5-4.3,23-12.2,31.5c-3.2,3.4-8.3,7.8-14.6,8.9
	c-6,1.2-12.7-0.8-17.9-5.1c-4.8-4.1-8.3-10.2-9.9-17.3c-0.1-0.6-0.4-1.1-0.6-1.5C310.8,212.9,329.5,207.3,346.8,199.3z M301,340.5
	c1.3,10.1,5.2,19.7,11,28c-0.1,0-0.2,0-0.2,0c-7.9,0.9-15.3,1.8-22.1,0c-5.6-1.5-11.2-4.9-16.6-10.2c-4.9-4.9-9.2-10.9-13.3-16.7
	c-0.2-0.4-0.6-0.7-0.9-0.9l0,0c6.2-13.7,8.9-25.3,8.8-36c-0.1-4.5-0.7-8.8-1.8-13c3.6-1.8,6.8-4.5,9.3-7.8
	c5.3,0.4,10.2,1.6,14.2,3.9c4.6,2.6,8.1,6.3,9.8,10.7c1.2,2.8,1.6,6.2,1.8,11c0.1,3.9-0.1,7.6-0.2,11.6
	C300.5,327.4,300.1,333.9,301,340.5z M211.3,339.8c-0.6-3.4-1.1-6.6-1.4-9.8c-1.1-10.5,0.6-20.2,4.6-28.1c4.3-8.6,12-15,20.2-17.2
	h0.1c1.1,1.2,2.3,2.2,3.8,3.3c5.1,3.6,11,5.5,16.8,5.5c0.2,0,0.4,0,0.6,0c0.9,3.6,1.5,7.3,1.5,11c0.1,9.2-2.3,19.3-7.9,31.6
	c-6.1,13.5-12.6,22.8-20.3,29.4c-6.5,5.4-13.9,8.7-21.1,9.5c3.1-5.1,4.7-11.3,4.8-18.3C213.2,351.1,212.2,345.3,211.3,339.8z
	 M262.8,244.6c-10.8,3.9-24.1-0.7-29.5-10c-3.2-5.5-4-12.2-4.3-18.8c10.2,1.5,20.7,2.3,31.1,2.3c2.7,0,5.4,0,8-0.1
	c4.8-0.2,9.6-0.6,14.5-1.1c-0.1,0.4-0.2,0.7-0.2,1.1C281.3,229.9,273.2,241,262.8,244.6z M254.5,256c2.3,0,4.7-0.2,7-0.7
	c0.4,0.9,0.9,1.8,1.9,2.5c4.2,2.8,6.8,8.3,6.2,13.4c-0.6,5.1-4.3,9.9-9.2,11.6c-4.9,1.8-11.3,0.7-16.1-2.8c-1.6-1.2-2.8-2.5-3.6-3.8
	c-1.2-2-1.5-4.7-1.2-7.6c0.6-4.1,5.2-10,9-12.9c0.1,0,0.1-0.1,0.1-0.1C250.9,255.9,252.7,256,254.5,256z M186.9,34.3
	c9.3-8.2,20.6-14.7,32.7-18.6c12-3.8,24.7-5.6,37.4-5.6c31,0,62.4,10.8,84,30.3c21.3,19.2,32.1,47.7,27.6,72.7
	c-1.5,8.5-4.6,16.7-7.9,25.3c-4.9,12.8-10,26.1-9.3,40.4c0.1,2.2,0.4,4.3,0.7,6.5c-0.1,0.1-0.4,0.1-0.5,0.2
	c-25.3,13.5-54.4,21.3-84,22.4c-29.6,1.2-59.2-4.3-85.4-15.9c-7.2-3.2-16.2-7.6-23.1-14.3c0.8-2.8,1.5-5.6,2.1-8.6
	c2.3-13.7,0.2-27.4-1.9-40.5c-1.3-7.9-2.6-16.1-2.8-24.1C155.8,78.1,167.1,51.9,186.9,34.3z M134.1,222.3c1.1-1.6,2.1-3.2,3.3-4.8
	c3.4-5.1,6.9-10.1,10.1-15.4c-0.1,2.3,0,4.8,0.2,7.2c1.8,15.5,12.8,29.4,27.5,34.7c6.2,2.2,12.7,2.8,18.6,1.8
	c6.8-1.3,13.6-4.8,20.7-10.9c2.2-1.9,4.2-3.9,6-5.9c0.8,3.6,2.1,7.3,4.1,10.7c3.2,5.4,7.9,9.6,13.5,12.5c-4,4.3-7.4,10-8.2,15.2
	c-0.1,0.8-0.2,1.6-0.2,2.5c-14.9,1.3-30.3,2.7-45.1,0.7c-10.3-1.4-20.3-4.5-29.7-9c-12.5-6.1-22.1-14.2-27.8-23.6
	c-0.5-0.7-1.1-1.3-1.8-1.6C128,231.5,131.1,226.9,134.1,222.3z M113.1,440.4c-22.7-28.3-32-68.5-25.5-110.2
	c4.2-27.3,14.8-55.3,32.2-85.1c6.8,10.1,17.4,18.8,30.7,25.3c1.4,0.7,2.9,1.4,4.5,2C132.2,321.3,125.9,375,137.1,424
	c3.8,16.3,10.9,36.9,24.3,53.9C141,467.6,124.8,455.1,113.1,440.4z M299.7,496.5c-35.7,8.1-75.1,5.4-112.1-7.6
	c-0.4-0.4-0.6-0.7-1.1-1.1c-23.9-16.4-34.7-45.1-39.6-66.3c-0.4-1.4-0.6-2.7-0.9-4.1c9.3,4.1,19.4,6.2,29,7.9
	c22.6,3.9,45.4,5.8,68,5.8c16,0,32.1-0.9,48.1-2.8c15.9-1.9,36-5.2,54.4-14c-2.5,10.6-5.8,20.8-8.9,29.8
	c-3.2,9.4-6.8,19.3-12.2,28.2c-5.5,9-12.7,16.9-18.4,22.8C303.8,495.6,301.8,496.1,299.7,496.5z M403.5,425
	c-17.9,28.4-45.7,50.9-78.5,63.8c2.8-3.5,5.5-7.3,8-11.3c5.9-9.8,9.9-20.7,13-30.1c4.9-14.2,10.2-31,12.5-48.4
	c5.6-42.3-6.1-84.1-20.1-123.3c6.8-1.6,13.9-3.9,20.7-7c10-4.7,19.2-11.5,26.6-19.7c11.6,16.7,23.7,33.8,31,52.8
	C432,340.6,426.9,387.9,403.5,425z"/>
<path class="st1" d="M203.4,175.3c6.9,6.6,15.9,11.8,27.5,15.9c8.9,3.2,20.8,6.2,33.9,6.2c6.9,0,14.2-0.9,21.5-3
	c21.6-6.3,39.2-23.2,45.8-44.1c6.9-21.6,1.5-45.9-13.7-62c-19-20.1-54.7-28.8-83-20.3c-8.6,2.6-16.5,6.6-23.4,11.9
	c-14.6,11.1-24.4,28.2-26.4,45.6C183.7,144,190.4,163,203.4,175.3z M324,147.7c-5.7,17.9-21.5,33-40.1,38.5
	c-18.9,5.5-37.7,1.4-50.2-3.1c-10.4-3.7-18.4-8.3-24.5-14.1c-8.9-8.4-14.3-20.6-15.2-33.2c2.6,0.8,5.4,1.2,8.4,1.2
	c3.9,0,8.2-0.7,12.8-2.1c20.4-6.2,36.1-20.8,48.2-34.4c2.9,7.1,8.4,13.5,15.7,18.1c9.7,6.1,20.8,8.2,29.5,9.4
	c5.8,0.8,11.9,1.4,17.9,0.3C326.8,134.9,326,141.5,324,147.7z M217.3,86.8c6.1-4.6,13.1-8.2,20.7-10.5c25-7.6,57.6,0.3,74.3,18
	c6.6,7,11.1,16,13,25.7c-5,1-10.4,0.5-15.6-0.3c-7.8-1.1-17.8-3-26.1-8.2c-8-5-13.2-12.6-13.9-20.3c-0.2-1.7-1.3-3.2-3-3.7
	c-1.6-0.5-3.4,0-4.5,1.4c-11.8,14.3-28.1,31.5-49.4,38c-5.4,1.7-12.9,2.9-18.5-0.1c0-0.1,0-0.1,0-0.2
	C195.9,111.3,204.5,96.5,217.3,86.8z"/>
</svg>
